<?xml version="1.0" encoding="UTF-8"?>
<svg id="Camada_1" data-name="Camada 1" xmlns="http://www.w3.org/2000/svg" viewBox="0 0 625.38 353.32">
  <defs>
    <style>
      .cls-1 {
        fill: #4e4e4e;
      }

      .cls-1, .cls-2, .cls-3 {
        stroke-width: 0px;
      }

      .cls-2 {
        fill: #dce5f1;
      }

      .cls-3 {
        fill: #adadad;
      }
    </style>
  </defs>
  <polygon class="cls-3" points="444.38 239.24 442.38 239.24 442.38 214.71 305.88 214.71 305.88 99.19 307.88 99.19 307.88 212.71 444.38 212.71 444.38 239.24"/>
  <rect class="cls-2" x="153.25" y="37.3" width="306.75" height="70.79"/>
  <g>
    <path class="cls-1" d="M231.53,63.19c0,1.16-.45,2.06-1.36,2.7-.91.64-2.19.96-3.84.96-3.07,0-4.84-1.07-5.33-3.2l1.65-.33c.19.76.6,1.31,1.21,1.67.62.35,1.46.53,2.53.53s1.95-.19,2.55-.57c.6-.38.9-.93.9-1.67,0-.41-.09-.74-.28-1-.19-.26-.45-.47-.79-.63-.34-.17-.74-.31-1.21-.42-.47-.11-.99-.24-1.56-.37-.99-.22-1.75-.44-2.26-.66s-.92-.47-1.22-.74c-.3-.27-.53-.59-.68-.95-.16-.36-.24-.78-.24-1.25,0-1.08.41-1.91,1.24-2.49.82-.58,2.01-.88,3.54-.88,1.43,0,2.52.22,3.28.66.76.44,1.29,1.18,1.59,2.24l-1.68.29c-.19-.67-.54-1.15-1.05-1.45s-1.24-.45-2.15-.45c-1.01,0-1.77.17-2.3.5-.53.33-.79.83-.79,1.49,0,.39.1.71.31.96.21.25.5.47.89.64s1.16.39,2.31.65c.39.09.77.18,1.16.27.38.09.75.2,1.1.33.35.13.68.28.99.45s.57.38.8.63c.23.25.4.54.53.88s.19.74.19,1.2Z"/>
    <path class="cls-1" d="M235.17,57v6.13c0,.64.06,1.13.19,1.48.12.35.32.6.6.76.27.16.68.23,1.21.23.77,0,1.38-.27,1.83-.79.45-.53.67-1.27.67-2.21v-5.6h1.61v7.6c0,1.13.02,1.81.05,2.06h-1.52s-.01-.11-.02-.24c0-.13-.01-.28-.02-.45,0-.17-.02-.49-.03-.96h-.03c-.37.67-.8,1.14-1.28,1.42s-1.09.42-1.81.42c-1.06,0-1.84-.26-2.33-.79-.49-.53-.74-1.4-.74-2.61v-6.44h1.62Z"/>
    <path class="cls-1" d="M251.95,61.79c0,3.37-1.19,5.06-3.56,5.06-1.49,0-2.49-.56-3-1.68h-.04s.04.55.04,1.52v3.78h-1.61v-11.49c0-.99-.02-1.65-.05-1.97h1.55s.01.11.03.25c.01.15.03.37.04.67.02.3.02.51.02.63h.04c.29-.6.66-1.03,1.13-1.31.47-.28,1.09-.42,1.86-.42,1.19,0,2.08.4,2.67,1.2.59.8.88,2.05.88,3.76ZM250.26,61.82c0-1.35-.18-2.31-.54-2.89-.36-.58-.94-.87-1.73-.87-.64,0-1.14.13-1.5.4s-.63.69-.82,1.25c-.19.57-.28,1.31-.28,2.22,0,1.27.2,2.2.61,2.81.4.6,1.06.9,1.97.9.8,0,1.38-.29,1.75-.88s.55-1.57.55-2.95Z"/>
    <path class="cls-1" d="M255.18,62.17c0,1.11.23,1.96.69,2.56.46.6,1.13.9,2.01.9.7,0,1.26-.14,1.67-.42.42-.28.7-.63.85-1.06l1.41.4c-.58,1.52-1.89,2.29-3.94,2.29-1.43,0-2.52-.43-3.26-1.28-.75-.85-1.12-2.12-1.12-3.8s.37-2.82,1.12-3.67c.75-.85,1.81-1.28,3.2-1.28,2.84,0,4.26,1.71,4.26,5.14v.21h-6.9ZM260.42,60.94c-.09-1.02-.35-1.76-.78-2.23-.43-.47-1.04-.7-1.85-.7s-1.4.26-1.85.78c-.46.52-.7,1.24-.74,2.15h5.22Z"/>
    <path class="cls-1" d="M264.16,66.67v-7.41c0-.68-.02-1.43-.05-2.25h1.52c.05,1.1.07,1.75.07,1.97h.04c.26-.83.55-1.39.88-1.7s.8-.46,1.41-.46c.21,0,.43.03.65.09v1.47c-.21-.06-.5-.09-.86-.09-.67,0-1.18.29-1.53.86-.35.58-.53,1.4-.53,2.47v5.04h-1.61Z"/>
    <path class="cls-1" d="M270.21,54.95v-1.54h1.61v1.54h-1.61ZM270.21,66.67v-9.67h1.61v9.67h-1.61Z"/>
    <path class="cls-1" d="M280.42,66.67v-6.13c0-.64-.06-1.13-.19-1.48-.12-.35-.32-.6-.6-.76s-.68-.23-1.21-.23c-.77,0-1.38.27-1.83.8-.45.53-.67,1.27-.67,2.21v5.6h-1.61v-7.6c0-1.13-.02-1.81-.05-2.06h1.52s.01.11.02.24c0,.13.01.28.02.45,0,.17.02.49.03.96h.03c.37-.67.8-1.14,1.28-1.42.49-.28,1.09-.42,1.81-.42,1.06,0,1.84.26,2.33.79.49.53.74,1.4.74,2.61v6.44h-1.62Z"/>
    <path class="cls-1" d="M288.17,66.59c-.53.14-1.07.21-1.63.21-1.29,0-1.93-.73-1.93-2.19v-6.45h-1.12v-1.17h1.18l.47-2.16h1.07v2.16h1.79v1.17h-1.79v6.1c0,.46.08.79.23.98s.42.28.79.28c.21,0,.52-.04.93-.13v1.19Z"/>
    <path class="cls-1" d="M290.77,62.17c0,1.11.23,1.96.69,2.56.46.6,1.13.9,2.01.9.7,0,1.26-.14,1.67-.42.42-.28.7-.63.85-1.06l1.41.4c-.58,1.52-1.89,2.29-3.94,2.29-1.43,0-2.52-.43-3.26-1.28-.75-.85-1.12-2.12-1.12-3.8s.37-2.82,1.12-3.67c.75-.85,1.81-1.28,3.2-1.28,2.84,0,4.26,1.71,4.26,5.14v.21h-6.9ZM296.01,60.94c-.09-1.02-.35-1.76-.78-2.23-.43-.47-1.04-.7-1.85-.7s-1.4.26-1.85.78c-.46.52-.7,1.24-.74,2.15h5.22Z"/>
    <path class="cls-1" d="M305.85,66.67v-6.13c0-.64-.06-1.13-.19-1.48-.12-.35-.32-.6-.6-.76s-.68-.23-1.21-.23c-.77,0-1.38.27-1.83.8-.45.53-.67,1.27-.67,2.21v5.6h-1.61v-7.6c0-1.13-.02-1.81-.05-2.06h1.52s.01.11.02.24c0,.13.01.28.02.45,0,.17.02.49.03.96h.03c.37-.67.8-1.14,1.28-1.42.49-.28,1.09-.42,1.81-.42,1.06,0,1.84.26,2.33.79.49.53.74,1.4.74,2.61v6.44h-1.62Z"/>
    <path class="cls-1" d="M315.99,65.11c-.3.62-.69,1.06-1.18,1.33-.49.27-1.1.4-1.83.4-1.22,0-2.12-.41-2.69-1.23s-.86-2.07-.86-3.73c0-3.37,1.19-5.06,3.56-5.06.73,0,1.34.13,1.83.4.49.27.88.69,1.18,1.28h.02l-.02-1.08v-4.01h1.61v11.26c0,1.01.02,1.67.05,1.99h-1.54c-.02-.1-.04-.32-.06-.66-.02-.35-.03-.64-.03-.89h-.04ZM311.11,61.82c0,1.35.18,2.32.54,2.9.36.58.94.88,1.74.88.91,0,1.57-.32,1.98-.95.41-.63.62-1.61.62-2.94s-.21-2.22-.62-2.81c-.41-.6-1.07-.89-1.97-.89-.81,0-1.4.3-1.76.9s-.54,1.57-.54,2.92Z"/>
    <path class="cls-1" d="M321.3,62.17c0,1.11.23,1.96.69,2.56.46.6,1.13.9,2.01.9.7,0,1.26-.14,1.67-.42.42-.28.7-.63.85-1.06l1.41.4c-.58,1.52-1.89,2.29-3.94,2.29-1.43,0-2.52-.43-3.26-1.28-.75-.85-1.12-2.12-1.12-3.8s.37-2.82,1.12-3.67c.75-.85,1.81-1.28,3.2-1.28,2.84,0,4.26,1.71,4.26,5.14v.21h-6.9ZM326.93,55.76v.18h-.94l-1.96-1.51h-.02l-2.07,1.51h-.93v-.18l2.09-2.41h1.82l2,2.41ZM326.53,60.94c-.09-1.02-.35-1.76-.78-2.23-.43-.47-1.04-.7-1.85-.7s-1.4.26-1.85.78c-.46.52-.7,1.24-.74,2.15h5.22Z"/>
    <path class="cls-1" d="M336.38,66.67v-6.13c0-.64-.06-1.13-.19-1.48-.12-.35-.32-.6-.6-.76s-.68-.23-1.21-.23c-.77,0-1.38.27-1.83.8-.45.53-.67,1.27-.67,2.21v5.6h-1.61v-7.6c0-1.13-.02-1.81-.05-2.06h1.52s.01.11.02.24c0,.13.01.28.02.45,0,.17.02.49.03.96h.03c.37-.67.8-1.14,1.28-1.42.49-.28,1.09-.42,1.81-.42,1.06,0,1.84.26,2.33.79.49.53.74,1.4.74,2.61v6.44h-1.62Z"/>
    <path class="cls-1" d="M341.64,61.79c0,1.29.2,2.24.61,2.86.4.62,1.02.93,1.83.93.57,0,1.05-.15,1.43-.46.38-.31.62-.79.71-1.43l1.63.11c-.12.93-.52,1.67-1.19,2.22-.67.55-1.51.83-2.54.83-1.35,0-2.38-.43-3.1-1.28-.71-.85-1.07-2.1-1.07-3.74s.36-2.87,1.07-3.72,1.74-1.28,3.07-1.28c.99,0,1.81.26,2.46.77.65.51,1.06,1.22,1.23,2.12l-1.65.12c-.08-.54-.29-.96-.63-1.28-.34-.32-.82-.47-1.45-.47-.85,0-1.47.28-1.85.85-.38.57-.57,1.52-.57,2.86Z"/>
    <path class="cls-1" d="M349.55,54.95v-1.54h1.61v1.54h-1.61ZM349.55,66.67v-9.67h1.61v9.67h-1.61Z"/>
    <path class="cls-1" d="M356.09,66.84c-.97,0-1.7-.26-2.19-.77s-.73-1.22-.73-2.11c0-1,.33-1.77.99-2.3s1.72-.82,3.18-.86l2.17-.04v-.53c0-.79-.17-1.35-.5-1.69-.33-.34-.86-.51-1.57-.51s-1.24.12-1.57.37c-.33.24-.52.63-.59,1.17l-1.68-.15c.27-1.74,1.57-2.61,3.88-2.61,1.21,0,2.13.28,2.74.84s.92,1.36.92,2.42v4.16c0,.48.06.83.19,1.08.12.24.36.36.71.36.15,0,.33-.02.53-.06v1c-.41.1-.82.14-1.24.14-.6,0-1.03-.16-1.3-.47-.27-.31-.42-.8-.46-1.47h-.05c-.41.74-.89,1.26-1.43,1.57-.54.31-1.21.46-1.99.46ZM356.46,65.64c.59,0,1.11-.13,1.57-.4s.82-.64,1.09-1.1c.26-.47.4-.95.4-1.44v-.79l-1.76.04c-.76.01-1.33.09-1.72.23-.39.14-.69.36-.9.66-.21.3-.31.69-.31,1.17,0,.52.14.93.42,1.21s.69.43,1.21.43Z"/>
    <path class="cls-1" d="M374.98,65.11c-.3.62-.69,1.06-1.18,1.33-.49.27-1.1.4-1.83.4-1.22,0-2.12-.41-2.69-1.23s-.86-2.07-.86-3.73c0-3.37,1.19-5.06,3.56-5.06.73,0,1.34.13,1.83.4.49.27.88.69,1.18,1.28h.02l-.02-1.08v-4.01h1.61v11.26c0,1.01.02,1.67.05,1.99h-1.54c-.02-.1-.04-.32-.06-.66-.02-.35-.03-.64-.03-.89h-.04ZM370.11,61.82c0,1.35.18,2.32.54,2.9.36.58.94.88,1.74.88.91,0,1.57-.32,1.98-.95.41-.63.62-1.61.62-2.94s-.21-2.22-.62-2.81c-.41-.6-1.07-.89-1.97-.89-.81,0-1.4.3-1.76.9s-.54,1.57-.54,2.92Z"/>
    <path class="cls-1" d="M380.29,62.17c0,1.11.23,1.96.69,2.56.46.6,1.13.9,2.01.9.7,0,1.26-.14,1.67-.42.42-.28.7-.63.85-1.06l1.41.4c-.58,1.52-1.89,2.29-3.94,2.29-1.43,0-2.52-.43-3.26-1.28-.75-.85-1.12-2.12-1.12-3.8s.37-2.82,1.12-3.67c.75-.85,1.81-1.28,3.2-1.28,2.84,0,4.26,1.71,4.26,5.14v.21h-6.9ZM385.52,60.94c-.09-1.02-.35-1.76-.78-2.23-.43-.47-1.04-.7-1.85-.7s-1.4.26-1.85.78c-.46.52-.7,1.24-.74,2.15h5.22Z"/>
    <path class="cls-1" d="M208.31,77.43v11.19h-1.7v-11.19h-4.32v-1.39h10.34v1.39h-4.32Z"/>
    <path class="cls-1" d="M213.49,84.13c0,1.11.23,1.96.69,2.56s1.13.9,2.01.9c.7,0,1.26-.14,1.67-.42.42-.28.7-.63.85-1.06l1.41.4c-.58,1.52-1.89,2.29-3.94,2.29-1.43,0-2.52-.43-3.26-1.28-.75-.85-1.12-2.12-1.12-3.8s.37-2.82,1.12-3.67c.75-.85,1.81-1.28,3.2-1.28,2.84,0,4.26,1.71,4.26,5.14v.21h-6.9ZM218.72,82.89c-.09-1.02-.35-1.76-.78-2.23-.43-.47-1.04-.7-1.85-.7s-1.4.26-1.85.78c-.46.52-.7,1.24-.74,2.15h5.22Z"/>
    <path class="cls-1" d="M223.65,83.74c0,1.29.2,2.24.61,2.86.4.62,1.02.93,1.83.93.57,0,1.05-.15,1.43-.46.38-.31.62-.79.71-1.43l1.63.11c-.12.93-.52,1.67-1.19,2.22-.67.55-1.51.83-2.54.83-1.35,0-2.38-.43-3.1-1.28-.71-.85-1.07-2.1-1.07-3.74s.36-2.87,1.07-3.72,1.74-1.28,3.07-1.28c.99,0,1.81.26,2.46.77.65.51,1.06,1.22,1.23,2.12l-1.65.12c-.08-.54-.29-.96-.63-1.28-.34-.32-.82-.47-1.45-.47-.85,0-1.47.28-1.85.85-.38.57-.57,1.52-.57,2.86Z"/>
    <path class="cls-1" d="M237.71,88.62v-6.13c0-.64-.06-1.13-.19-1.48s-.32-.6-.6-.76-.68-.23-1.21-.23c-.77,0-1.38.27-1.83.8-.45.53-.67,1.27-.67,2.21v5.6h-1.61v-7.6c0-1.12-.02-1.81-.05-2.06h1.52s.01.11.02.24c0,.13.01.28.02.45,0,.17.02.49.03.96h.03c.37-.67.8-1.14,1.28-1.42.49-.28,1.09-.42,1.81-.42,1.06,0,1.84.26,2.33.79.49.53.74,1.4.74,2.61v6.44h-1.62Z"/>
    <path class="cls-1" d="M249.92,83.78c0,1.69-.37,2.95-1.12,3.78-.74.83-1.83,1.24-3.24,1.24s-2.48-.43-3.2-1.29-1.08-2.1-1.08-3.73c0-3.33,1.44-5,4.33-5,1.48,0,2.56.41,3.26,1.22.7.81,1.04,2.07,1.04,3.78ZM248.24,83.78c0-1.33-.2-2.3-.59-2.91s-1.06-.91-2-.91-1.62.31-2.04.92-.63,1.58-.63,2.89.21,2.23.62,2.87c.41.64,1.06.96,1.95.96.96,0,1.65-.31,2.07-.93s.62-1.59.62-2.9Z"/>
    <path class="cls-1" d="M251.92,88.62v-13.26h1.61v13.26h-1.61Z"/>
    <path class="cls-1" d="M264.16,83.78c0,1.69-.37,2.95-1.12,3.78-.74.83-1.83,1.24-3.24,1.24s-2.48-.43-3.2-1.29-1.08-2.1-1.08-3.73c0-3.33,1.44-5,4.33-5,1.48,0,2.56.41,3.26,1.22.7.81,1.04,2.07,1.04,3.78ZM262.47,83.78c0-1.33-.2-2.3-.59-2.91s-1.06-.91-2-.91-1.62.31-2.04.92-.63,1.58-.63,2.89.21,2.23.62,2.87c.41.64,1.06.96,1.95.96.96,0,1.65-.31,2.07-.93s.62-1.59.62-2.9Z"/>
    <path class="cls-1" d="M269.83,92.42c-1.05,0-1.89-.21-2.52-.62-.62-.41-1.03-1-1.21-1.76l1.62-.23c.11.45.34.79.71,1.03s.85.36,1.44.36c1.6,0,2.4-.94,2.4-2.81v-1.55h-.02c-.3.62-.72,1.09-1.25,1.4-.53.31-1.15.47-1.86.47-1.19,0-2.06-.39-2.61-1.18-.56-.79-.84-2.02-.84-3.71s.3-2.97.9-3.78c.6-.81,1.51-1.22,2.73-1.22.68,0,1.28.16,1.78.47.5.31.89.76,1.17,1.34h.02c0-.18.01-.49.04-.93.02-.44.05-.68.07-.72h1.53c-.04.32-.05.99-.05,2v7.39c0,2.72-1.35,4.07-4.05,4.07ZM272.27,83.79c0-.79-.11-1.46-.32-2.03-.21-.57-.52-1-.91-1.3-.39-.3-.83-.45-1.33-.45-.82,0-1.42.3-1.8.89-.38.6-.56,1.56-.56,2.89s.18,2.27.53,2.85c.35.58.95.87,1.8.87.51,0,.96-.15,1.35-.45.39-.3.7-.72.91-1.28.21-.56.32-1.22.32-1.99Z"/>
    <path class="cls-1" d="M276.33,76.9v-1.54h1.61v1.54h-1.61ZM276.33,88.62v-9.67h1.61v9.67h-1.61Z"/>
    <path class="cls-1" d="M282.87,88.8c-.97,0-1.7-.26-2.19-.77-.49-.51-.73-1.21-.73-2.11,0-1,.33-1.77.99-2.3.66-.54,1.72-.82,3.18-.86l2.17-.04v-.53c0-.79-.17-1.35-.5-1.69-.33-.34-.86-.51-1.57-.51s-1.24.12-1.57.37c-.33.24-.52.63-.59,1.17l-1.68-.15c.27-1.74,1.57-2.61,3.88-2.61,1.21,0,2.13.28,2.74.84s.92,1.36.92,2.42v4.16c0,.48.06.83.19,1.08.12.24.36.36.71.36.15,0,.33-.02.53-.06v1c-.41.1-.82.14-1.24.14-.6,0-1.03-.16-1.3-.47s-.42-.8-.46-1.47h-.05c-.41.74-.89,1.26-1.43,1.57-.54.31-1.21.46-1.99.46ZM283.23,87.59c.59,0,1.11-.13,1.57-.4.46-.27.82-.63,1.09-1.1.26-.47.4-.95.4-1.44v-.79l-1.76.04c-.76.01-1.33.09-1.72.23-.39.14-.69.36-.9.66s-.31.69-.31,1.17c0,.52.14.93.42,1.21s.69.43,1.21.43Z"/>
    <path class="cls-1" d="M301.76,87.06c-.3.62-.69,1.06-1.18,1.33-.49.27-1.1.4-1.83.4-1.22,0-2.12-.41-2.69-1.23-.57-.82-.86-2.07-.86-3.73,0-3.37,1.19-5.06,3.56-5.06.73,0,1.34.13,1.83.4.49.27.88.69,1.18,1.28h.02l-.02-1.08v-4.01h1.61v11.26c0,1.01.02,1.67.05,1.99h-1.54c-.02-.09-.04-.32-.06-.66-.02-.34-.03-.64-.03-.89h-.04ZM296.88,83.78c0,1.35.18,2.32.54,2.9.36.58.94.88,1.74.88.91,0,1.57-.32,1.98-.95.41-.63.62-1.61.62-2.94s-.21-2.22-.62-2.81c-.41-.6-1.07-.89-1.97-.89-.81,0-1.4.3-1.76.9-.36.6-.54,1.57-.54,2.92Z"/>
    <path class="cls-1" d="M308.3,88.8c-.97,0-1.7-.26-2.19-.77-.49-.51-.73-1.21-.73-2.11,0-1,.33-1.77.99-2.3.66-.54,1.72-.82,3.18-.86l2.17-.04v-.53c0-.79-.17-1.35-.5-1.69-.33-.34-.86-.51-1.57-.51s-1.24.12-1.57.37c-.33.24-.52.63-.59,1.17l-1.68-.15c.27-1.74,1.57-2.61,3.88-2.61,1.21,0,2.13.28,2.74.84s.92,1.36.92,2.42v4.16c0,.48.06.83.19,1.08.12.24.36.36.71.36.15,0,.33-.02.53-.06v1c-.41.1-.82.14-1.24.14-.6,0-1.03-.16-1.3-.47s-.42-.8-.46-1.47h-.05c-.41.74-.89,1.26-1.43,1.57-.54.31-1.21.46-1.99.46ZM308.67,87.59c.59,0,1.11-.13,1.57-.4.46-.27.82-.63,1.09-1.1.26-.47.4-.95.4-1.44v-.79l-1.76.04c-.76.01-1.33.09-1.72.23-.39.14-.69.36-.9.66s-.31.69-.31,1.17c0,.52.14.93.42,1.21s.69.43,1.21.43Z"/>
    <path class="cls-1" d="M321.55,88.62v-12.59h1.71v12.59h-1.71Z"/>
    <path class="cls-1" d="M332.31,88.62v-6.13c0-.64-.06-1.13-.19-1.48s-.32-.6-.6-.76-.68-.23-1.21-.23c-.77,0-1.38.27-1.83.8-.45.53-.67,1.27-.67,2.21v5.6h-1.61v-7.6c0-1.12-.02-1.81-.05-2.06h1.52s.01.11.02.24c0,.13.01.28.02.45,0,.17.02.49.03.96h.03c.37-.67.8-1.14,1.28-1.42.49-.28,1.09-.42,1.81-.42,1.06,0,1.84.26,2.33.79.49.53.74,1.4.74,2.61v6.44h-1.62Z"/>
    <path class="cls-1" d="M338.34,80.12v8.5h-1.61v-8.5h-1.36v-1.17h1.36v-1.09c0-.88.19-1.52.58-1.9.39-.39.98-.58,1.78-.58.45,0,.82.04,1.13.11v1.22c-.27-.05-.51-.07-.71-.07-.41,0-.71.1-.89.31-.18.21-.28.59-.28,1.13v.87h1.88v1.17h-1.88Z"/>
    <path class="cls-1" d="M349.61,83.78c0,1.69-.37,2.95-1.12,3.78-.74.83-1.83,1.24-3.24,1.24s-2.48-.43-3.2-1.29-1.08-2.1-1.08-3.73c0-3.33,1.44-5,4.33-5,1.48,0,2.56.41,3.26,1.22.7.81,1.04,2.07,1.04,3.78ZM347.92,83.78c0-1.33-.2-2.3-.59-2.91s-1.06-.91-2-.91-1.62.31-2.04.92-.63,1.58-.63,2.89.21,2.23.62,2.87c.41.64,1.06.96,1.95.96.96,0,1.65-.31,2.07-.93s.62-1.59.62-2.9Z"/>
    <path class="cls-1" d="M351.64,88.62v-7.41c0-.68-.02-1.43-.05-2.25h1.52c.05,1.1.07,1.75.07,1.97h.04c.26-.83.55-1.39.88-1.7s.8-.46,1.41-.46c.21,0,.43.03.65.09v1.47c-.21-.06-.5-.09-.86-.09-.67,0-1.18.29-1.53.86-.35.58-.53,1.4-.53,2.47v5.04h-1.61Z"/>
    <path class="cls-1" d="M363.33,88.62v-6.13c0-.94-.13-1.58-.38-1.94-.26-.36-.72-.54-1.38-.54s-1.23.26-1.63.79c-.4.52-.6,1.26-.6,2.22v5.6h-1.6v-7.6c0-1.12-.02-1.81-.05-2.06h1.52s.01.11.02.24c0,.13.01.28.02.45,0,.17.02.49.03.96h.03c.35-.69.74-1.16,1.19-1.43.45-.27.99-.4,1.63-.4.73,0,1.31.15,1.74.44s.72.76.89,1.39h.03c.33-.65.74-1.12,1.21-1.4.47-.29,1.05-.43,1.72-.43.98,0,1.69.27,2.13.8.44.53.67,1.4.67,2.61v6.44h-1.59v-6.13c0-.94-.13-1.58-.38-1.94-.26-.36-.72-.54-1.38-.54-.7,0-1.25.26-1.64.78s-.58,1.26-.58,2.22v5.6h-1.59Z"/>
    <path class="cls-1" d="M375.4,88.8c-.97,0-1.7-.26-2.19-.77-.49-.51-.73-1.21-.73-2.11,0-1,.33-1.77.99-2.3.66-.54,1.72-.82,3.18-.86l2.17-.04v-.53c0-.79-.17-1.35-.5-1.69-.33-.34-.86-.51-1.57-.51s-1.24.12-1.57.37c-.33.24-.52.63-.59,1.17l-1.68-.15c.27-1.74,1.57-2.61,3.88-2.61,1.21,0,2.13.28,2.74.84s.92,1.36.92,2.42v4.16c0,.48.06.83.19,1.08.12.24.36.36.71.36.15,0,.33-.02.53-.06v1c-.41.1-.82.14-1.24.14-.6,0-1.03-.16-1.3-.47s-.42-.8-.46-1.47h-.05c-.41.74-.89,1.26-1.43,1.57-.54.31-1.21.46-1.99.46ZM375.77,87.59c.59,0,1.11-.13,1.57-.4.46-.27.82-.63,1.09-1.1.26-.47.4-.95.4-1.44v-.79l-1.76.04c-.76.01-1.33.09-1.72.23-.39.14-.69.36-.9.66s-.31.69-.31,1.17c0,.52.14.93.42,1.21s.69.43,1.21.43Z"/>
    <path class="cls-1" d="M384.34,83.74c0,1.29.2,2.24.61,2.86.4.62,1.02.93,1.83.93.57,0,1.05-.15,1.43-.46.38-.31.62-.79.71-1.43l1.63.11c-.12.93-.52,1.67-1.19,2.22-.67.55-1.51.83-2.54.83-1.35,0-2.38-.43-3.1-1.28-.71-.85-1.07-2.1-1.07-3.74s.36-2.87,1.07-3.72,1.74-1.28,3.07-1.28c.99,0,1.81.26,2.46.77.65.51,1.06,1.22,1.23,2.12l-1.65.12c-.08-.54-.29-.96-.63-1.28-.34-.32-.82-.47-1.45-.47-.85,0-1.47.28-1.85.85-.38.57-.57,1.52-.57,2.86ZM388.59,90.88c0,1.08-.82,1.62-2.45,1.62-.34,0-.61-.01-.8-.04v-.88c.29.04.55.05.77.05.88,0,1.31-.24,1.31-.72s-.4-.69-1.19-.69c-.26,0-.43,0-.51.02l.58-1.63h.96l-.35.89c.56.02.98.15,1.26.39.28.24.42.57.42.98Z"/>
    <path class="cls-1" d="M394.73,88.8c-.97,0-1.7-.26-2.19-.77-.49-.51-.73-1.21-.73-2.11,0-1,.33-1.77.99-2.3.66-.54,1.72-.82,3.18-.86l2.17-.04v-.53c0-.79-.17-1.35-.5-1.69-.33-.34-.86-.51-1.57-.51s-1.24.12-1.57.37c-.33.24-.52.63-.59,1.17l-1.68-.15c.27-1.74,1.57-2.61,3.88-2.61,1.21,0,2.13.28,2.74.84s.92,1.36.92,2.42v4.16c0,.48.06.83.19,1.08.12.24.36.36.71.36.15,0,.33-.02.53-.06v1c-.41.1-.82.14-1.24.14-.6,0-1.03-.16-1.3-.47s-.42-.8-.46-1.47h-.05c-.41.74-.89,1.26-1.43,1.57-.54.31-1.21.46-1.99.46ZM397.61,77.89c-.25,0-.5-.05-.75-.17-.25-.11-.49-.23-.72-.37-.23-.13-.45-.26-.67-.37-.21-.11-.41-.17-.59-.17-.33,0-.57.09-.73.28s-.27.45-.32.79h-.81c.07-.61.17-1.07.31-1.38.14-.31.33-.56.58-.74s.55-.27.92-.27c.26,0,.52.06.77.17.25.11.49.23.72.37.23.13.45.26.66.37s.4.17.58.17c.6,0,.94-.35,1.05-1.06h.82c-.1.88-.3,1.5-.6,1.86-.3.36-.7.54-1.21.54ZM395.09,87.59c.59,0,1.11-.13,1.57-.4.46-.27.82-.63,1.09-1.1.26-.47.4-.95.4-1.44v-.79l-1.76.04c-.76.01-1.33.09-1.72.23-.39.14-.69.36-.9.66s-.31.69-.31,1.17c0,.52.14.93.42,1.21s.69.43,1.21.43Z"/>
    <path class="cls-1" d="M410.61,83.78c0,1.69-.37,2.95-1.12,3.78-.74.83-1.83,1.24-3.24,1.24s-2.48-.43-3.2-1.29-1.08-2.1-1.08-3.73c0-3.33,1.44-5,4.33-5,1.48,0,2.56.41,3.26,1.22.7.81,1.04,2.07,1.04,3.78ZM408.92,83.78c0-1.33-.2-2.3-.59-2.91s-1.06-.91-2-.91-1.62.31-2.04.92-.63,1.58-.63,2.89.21,2.23.62,2.87c.41.64,1.06.96,1.95.96.96,0,1.65-.31,2.07-.93s.62-1.59.62-2.9Z"/>
  </g>
  <rect class="cls-2" x="45.51" y="127.23" width="199" height="63"/>
  <rect class="cls-2" x="368.54" y="127.23" width="199" height="63"/>
  <g>
    <path class="cls-1" d="M76.29,163.68l-1.44-3.68h-5.73l-1.45,3.68h-1.77l5.14-12.59h1.94l5.06,12.59h-1.74ZM71.99,152.38l-.08.25c-.15.49-.37,1.13-.66,1.9l-1.61,4.14h4.71l-1.62-4.15c-.17-.41-.33-.88-.5-1.39l-.24-.74Z"/>
    <path class="cls-1" d="M86.56,161.01c0,.91-.34,1.61-1.03,2.11-.69.49-1.65.74-2.89.74s-2.13-.2-2.78-.59c-.65-.4-1.08-1.01-1.27-1.85l1.42-.28c.14.52.42.9.85,1.14.43.24,1.02.36,1.79.36.82,0,1.41-.13,1.79-.38.38-.25.57-.62.57-1.13,0-.38-.13-.69-.39-.93-.26-.24-.68-.43-1.27-.59l-1.15-.3c-.92-.24-1.58-.47-1.97-.7-.39-.23-.7-.51-.92-.84-.22-.33-.33-.73-.33-1.21,0-.88.31-1.55.94-2.01.63-.46,1.54-.69,2.75-.69,1.07,0,1.91.19,2.54.56.63.38,1.03.98,1.19,1.8l-1.45.18c-.09-.43-.33-.76-.72-.99-.39-.23-.91-.34-1.57-.34-.73,0-1.26.11-1.61.33-.35.22-.52.55-.52,1,0,.27.07.5.21.68.14.18.35.33.63.46s.87.3,1.77.52c.85.21,1.47.41,1.84.59s.67.38.89.6c.22.22.39.48.5.76.12.29.18.62.18.99Z"/>
    <path class="cls-1" d="M95.7,161.01c0,.91-.34,1.61-1.03,2.11-.69.49-1.65.74-2.89.74s-2.13-.2-2.78-.59c-.65-.4-1.08-1.01-1.27-1.85l1.42-.28c.14.52.42.9.85,1.14.43.24,1.02.36,1.79.36.82,0,1.41-.13,1.79-.38.38-.25.57-.62.57-1.13,0-.38-.13-.69-.39-.93-.26-.24-.68-.43-1.27-.59l-1.15-.3c-.92-.24-1.58-.47-1.97-.7-.39-.23-.7-.51-.92-.84-.22-.33-.33-.73-.33-1.21,0-.88.31-1.55.94-2.01.63-.46,1.54-.69,2.75-.69,1.07,0,1.91.19,2.54.56.63.38,1.03.98,1.19,1.8l-1.45.18c-.09-.43-.33-.76-.72-.99-.39-.23-.91-.34-1.57-.34-.73,0-1.26.11-1.61.33-.35.22-.52.55-.52,1,0,.27.07.5.21.68.14.18.35.33.63.46s.87.3,1.77.52c.85.21,1.47.41,1.84.59s.67.38.89.6c.22.22.39.48.5.76.12.29.18.62.18.99Z"/>
    <path class="cls-1" d="M98.83,159.18c0,1.11.23,1.96.69,2.56.46.6,1.13.9,2.01.9.7,0,1.26-.14,1.67-.42.42-.28.7-.63.85-1.06l1.41.4c-.58,1.52-1.89,2.29-3.94,2.29-1.43,0-2.52-.43-3.26-1.28-.75-.85-1.12-2.12-1.12-3.8s.37-2.82,1.12-3.67c.75-.85,1.81-1.28,3.2-1.28,2.84,0,4.26,1.71,4.26,5.14v.21h-6.9ZM104.06,157.95c-.09-1.02-.35-1.76-.78-2.23-.43-.47-1.04-.7-1.85-.7s-1.4.26-1.85.78c-.46.52-.7,1.24-.74,2.15h5.22Z"/>
    <path class="cls-1" d="M115.02,161.01c0,.91-.34,1.61-1.03,2.11-.69.49-1.65.74-2.89.74s-2.13-.2-2.78-.59c-.65-.4-1.08-1.01-1.27-1.85l1.42-.28c.14.52.42.9.85,1.14.43.24,1.02.36,1.79.36.82,0,1.41-.13,1.79-.38.38-.25.57-.62.57-1.13,0-.38-.13-.69-.39-.93-.26-.24-.68-.43-1.27-.59l-1.15-.3c-.92-.24-1.58-.47-1.97-.7-.39-.23-.7-.51-.92-.84-.22-.33-.33-.73-.33-1.21,0-.88.31-1.55.94-2.01.63-.46,1.54-.69,2.75-.69,1.07,0,1.91.19,2.54.56.63.38,1.03.98,1.19,1.8l-1.45.18c-.09-.43-.33-.76-.72-.99-.39-.23-.91-.34-1.57-.34-.73,0-1.26.11-1.61.33-.35.22-.52.55-.52,1,0,.27.07.5.21.68.14.18.35.33.63.46s.87.3,1.77.52c.85.21,1.47.41,1.84.59s.67.38.89.6c.22.22.39.48.5.76.12.29.18.62.18.99Z"/>
    <path class="cls-1" d="M124.17,161.01c0,.91-.34,1.61-1.03,2.11-.69.49-1.65.74-2.89.74s-2.13-.2-2.78-.59c-.65-.4-1.08-1.01-1.27-1.85l1.42-.28c.14.52.42.9.85,1.14.43.24,1.02.36,1.79.36.82,0,1.41-.13,1.79-.38.38-.25.57-.62.57-1.13,0-.38-.13-.69-.39-.93-.26-.24-.68-.43-1.27-.59l-1.15-.3c-.92-.24-1.58-.47-1.97-.7-.39-.23-.7-.51-.92-.84-.22-.33-.33-.73-.33-1.21,0-.88.31-1.55.94-2.01.63-.46,1.54-.69,2.75-.69,1.07,0,1.91.19,2.54.56.63.38,1.03.98,1.19,1.8l-1.45.18c-.09-.43-.33-.76-.72-.99-.39-.23-.91-.34-1.57-.34-.73,0-1.26.11-1.61.33-.35.22-.52.55-.52,1,0,.27.07.5.21.68.14.18.35.33.63.46s.87.3,1.77.52c.85.21,1.47.41,1.84.59s.67.38.89.6c.22.22.39.48.5.76.12.29.18.62.18.99Z"/>
    <path class="cls-1" d="M134.24,158.84c0,1.69-.37,2.95-1.12,3.78-.74.83-1.83,1.24-3.24,1.24s-2.48-.43-3.2-1.29c-.72-.86-1.08-2.1-1.08-3.73,0-3.33,1.44-5,4.33-5,1.48,0,2.56.41,3.26,1.22.7.81,1.04,2.07,1.04,3.78ZM132.55,158.84c0-1.33-.2-2.3-.59-2.91-.4-.6-1.06-.91-2-.91s-1.62.31-2.04.92-.63,1.58-.63,2.89.21,2.23.62,2.87c.41.64,1.06.96,1.95.96.96,0,1.65-.31,2.07-.93.41-.62.62-1.59.62-2.9Z"/>
    <path class="cls-1" d="M136.28,163.68v-7.41c0-.68-.02-1.43-.05-2.25h1.52c.05,1.1.07,1.75.07,1.97h.04c.26-.83.55-1.39.88-1.7s.8-.46,1.41-.46c.21,0,.43.03.65.09v1.47c-.21-.06-.5-.09-.86-.09-.67,0-1.18.29-1.53.86-.35.58-.53,1.4-.53,2.47v5.04h-1.61Z"/>
    <path class="cls-1" d="M142.32,151.96v-1.54h1.61v1.54h-1.61ZM142.32,163.68v-9.67h1.61v9.67h-1.61Z"/>
    <path class="cls-1" d="M148.86,163.86c-.97,0-1.7-.26-2.19-.77s-.73-1.22-.73-2.11c0-1,.33-1.77.99-2.3s1.72-.82,3.18-.86l2.17-.04v-.53c0-.79-.17-1.35-.5-1.69-.33-.34-.86-.51-1.57-.51s-1.24.12-1.57.37c-.33.24-.52.63-.59,1.17l-1.68-.15c.27-1.74,1.57-2.61,3.88-2.61,1.21,0,2.13.28,2.74.84s.92,1.36.92,2.42v4.16c0,.48.06.83.19,1.08.12.24.36.36.71.36.15,0,.33-.02.53-.06v1c-.41.1-.82.14-1.24.14-.6,0-1.03-.16-1.3-.47-.27-.31-.42-.8-.46-1.47h-.05c-.41.74-.89,1.26-1.43,1.57-.54.31-1.21.46-1.99.46ZM149.23,162.65c.59,0,1.11-.13,1.57-.4s.82-.64,1.09-1.1c.26-.47.4-.95.4-1.44v-.79l-1.76.04c-.76.01-1.33.09-1.72.23-.39.14-.69.36-.9.66-.21.3-.31.69-.31,1.17,0,.52.14.93.42,1.21s.69.43,1.21.43Z"/>
    <path class="cls-1" d="M166.52,152.48v11.19h-1.7v-11.19h-4.32v-1.39h10.34v1.39h-4.32Z"/>
    <path class="cls-1" d="M173.73,159.18c0,1.11.23,1.96.69,2.56.46.6,1.13.9,2.01.9.7,0,1.26-.14,1.67-.42.42-.28.7-.63.85-1.06l1.41.4c-.58,1.52-1.89,2.29-3.94,2.29-1.43,0-2.52-.43-3.26-1.28-.75-.85-1.12-2.12-1.12-3.8s.37-2.82,1.12-3.67c.75-.85,1.81-1.28,3.2-1.28,2.84,0,4.26,1.71,4.26,5.14v.21h-6.9ZM178.97,157.95c-.09-1.02-.35-1.76-.78-2.23-.43-.47-1.04-.7-1.85-.7s-1.4.26-1.85.78c-.46.52-.7,1.24-.74,2.15h5.22ZM175.2,152.95v-.18l1.94-2.56h1.85v.26l-2.95,2.48h-.84Z"/>
    <path class="cls-1" d="M183.9,158.8c0,1.29.2,2.24.61,2.86.4.62,1.02.93,1.83.93.57,0,1.05-.15,1.43-.46.38-.31.62-.79.71-1.43l1.63.11c-.12.93-.52,1.67-1.19,2.22-.67.55-1.51.83-2.54.83-1.35,0-2.38-.43-3.1-1.28-.71-.85-1.07-2.1-1.07-3.74s.36-2.87,1.07-3.72,1.74-1.28,3.07-1.28c.99,0,1.81.26,2.46.77.65.51,1.06,1.22,1.23,2.12l-1.65.12c-.08-.54-.29-.96-.63-1.28-.34-.32-.82-.47-1.45-.47-.85,0-1.47.28-1.85.85-.38.57-.57,1.52-.57,2.86Z"/>
    <path class="cls-1" d="M197.96,163.68v-6.13c0-.64-.06-1.13-.19-1.48-.12-.35-.32-.6-.6-.76s-.68-.23-1.21-.23c-.77,0-1.38.27-1.83.8-.45.53-.67,1.27-.67,2.21v5.6h-1.61v-7.6c0-1.13-.02-1.81-.05-2.06h1.52s.01.11.02.24c0,.13.01.28.02.45,0,.17.02.49.03.96h.03c.37-.67.8-1.14,1.28-1.42.49-.28,1.09-.42,1.81-.42,1.06,0,1.84.26,2.33.79.49.53.74,1.4.74,2.61v6.44h-1.62Z"/>
    <path class="cls-1" d="M201.99,151.96v-1.54h1.61v1.54h-1.61ZM201.99,163.68v-9.67h1.61v9.67h-1.61Z"/>
    <path class="cls-1" d="M207.28,158.8c0,1.29.2,2.24.61,2.86.4.62,1.02.93,1.83.93.57,0,1.05-.15,1.43-.46.38-.31.62-.79.71-1.43l1.63.11c-.12.93-.52,1.67-1.19,2.22-.67.55-1.51.83-2.54.83-1.35,0-2.38-.43-3.1-1.28-.71-.85-1.07-2.1-1.07-3.74s.36-2.87,1.07-3.72,1.74-1.28,3.07-1.28c.99,0,1.81.26,2.46.77.65.51,1.06,1.22,1.23,2.12l-1.65.12c-.08-.54-.29-.96-.63-1.28-.34-.32-.82-.47-1.45-.47-.85,0-1.47.28-1.85.85-.38.57-.57,1.52-.57,2.86Z"/>
    <path class="cls-1" d="M217.67,163.86c-.97,0-1.7-.26-2.19-.77s-.73-1.22-.73-2.11c0-1,.33-1.77.99-2.3s1.72-.82,3.18-.86l2.17-.04v-.53c0-.79-.17-1.35-.5-1.69-.33-.34-.86-.51-1.57-.51s-1.24.12-1.57.37c-.33.24-.52.63-.59,1.17l-1.68-.15c.27-1.74,1.57-2.61,3.88-2.61,1.21,0,2.13.28,2.74.84s.92,1.36.92,2.42v4.16c0,.48.06.83.19,1.08.12.24.36.36.71.36.15,0,.33-.02.53-.06v1c-.41.1-.82.14-1.24.14-.6,0-1.03-.16-1.3-.47-.27-.31-.42-.8-.46-1.47h-.05c-.41.74-.89,1.26-1.43,1.57-.54.31-1.21.46-1.99.46ZM218.04,162.65c.59,0,1.11-.13,1.57-.4s.82-.64,1.09-1.1c.26-.47.4-.95.4-1.44v-.79l-1.76.04c-.76.01-1.33.09-1.72.23-.39.14-.69.36-.9.66-.21.3-.31.69-.31,1.17,0,.52.14.93.42,1.21s.69.43,1.21.43Z"/>
  </g>
  <rect class="cls-2" x="70.88" y="239.9" width="199" height="63"/>
  <g>
    <path class="cls-1" d="M116.94,256.64c-1.39,0-2.48.45-3.25,1.34-.77.9-1.16,2.12-1.16,3.69s.4,2.78,1.21,3.72c.81.94,1.9,1.41,3.27,1.41,1.76,0,3.09-.87,3.98-2.62l1.39.7c-.52,1.08-1.25,1.91-2.18,2.47s-2.03.85-3.27.85-2.37-.26-3.29-.79c-.93-.53-1.63-1.28-2.12-2.26-.49-.98-.73-2.14-.73-3.48,0-2.01.54-3.58,1.63-4.72,1.08-1.14,2.58-1.71,4.5-1.71,1.34,0,2.46.26,3.36.79.9.52,1.56,1.3,1.98,2.33l-1.62.54c-.29-.73-.76-1.29-1.41-1.68s-1.41-.58-2.3-.58Z"/>
    <path class="cls-1" d="M132.48,263.18c0,1.69-.37,2.95-1.12,3.78-.74.83-1.83,1.24-3.24,1.24s-2.48-.43-3.2-1.29c-.72-.86-1.08-2.1-1.08-3.73,0-3.33,1.44-5,4.33-5,1.48,0,2.56.41,3.26,1.22.7.81,1.04,2.07,1.04,3.78ZM130.8,263.18c0-1.33-.2-2.3-.59-2.91-.4-.6-1.06-.91-2-.91s-1.62.31-2.04.92-.63,1.58-.63,2.89.21,2.23.62,2.87c.41.64,1.06.96,1.95.96.96,0,1.65-.31,2.07-.93.41-.62.62-1.59.62-2.9Z"/>
    <path class="cls-1" d="M142.66,263.18c0,1.69-.37,2.95-1.12,3.78-.74.83-1.83,1.24-3.24,1.24s-2.48-.43-3.2-1.29c-.72-.86-1.08-2.1-1.08-3.73,0-3.33,1.44-5,4.33-5,1.48,0,2.56.41,3.26,1.22.7.81,1.04,2.07,1.04,3.78ZM140.97,263.18c0-1.33-.2-2.3-.59-2.91-.4-.6-1.06-.91-2-.91s-1.62.31-2.04.92-.63,1.58-.63,2.89.21,2.23.62,2.87c.41.64,1.06.96,1.95.96.96,0,1.65-.31,2.07-.93.41-.62.62-1.59.62-2.9Z"/>
    <path class="cls-1" d="M144.69,268.02v-7.41c0-.68-.02-1.43-.05-2.25h1.52c.05,1.1.07,1.75.07,1.97h.04c.26-.83.55-1.39.88-1.7s.8-.46,1.41-.46c.21,0,.43.03.65.09v1.47c-.21-.06-.5-.09-.86-.09-.67,0-1.18.29-1.53.86-.35.58-.53,1.4-.53,2.47v5.04h-1.61Z"/>
    <path class="cls-1" d="M156.85,266.47c-.3.62-.69,1.06-1.18,1.33-.49.27-1.1.4-1.83.4-1.22,0-2.12-.41-2.69-1.23s-.86-2.07-.86-3.73c0-3.37,1.19-5.06,3.56-5.06.73,0,1.34.13,1.83.4.49.27.88.69,1.18,1.28h.02l-.02-1.08v-4.01h1.61v11.26c0,1.01.02,1.67.05,1.99h-1.54c-.02-.1-.04-.32-.06-.66-.02-.35-.03-.64-.03-.89h-.04ZM151.98,263.18c0,1.35.18,2.32.54,2.9.36.58.94.88,1.74.88.91,0,1.57-.32,1.98-.95.41-.63.62-1.61.62-2.94s-.21-2.22-.62-2.81c-.41-.6-1.07-.89-1.97-.89-.81,0-1.4.3-1.76.9s-.54,1.57-.54,2.92Z"/>
    <path class="cls-1" d="M162.16,263.53c0,1.11.23,1.96.69,2.56.46.6,1.13.9,2.01.9.7,0,1.26-.14,1.67-.42.42-.28.7-.63.85-1.06l1.41.4c-.58,1.52-1.89,2.29-3.94,2.29-1.43,0-2.52-.43-3.26-1.28-.75-.85-1.12-2.12-1.12-3.8s.37-2.82,1.12-3.67c.75-.85,1.81-1.28,3.2-1.28,2.84,0,4.26,1.71,4.26,5.14v.21h-6.9ZM167.39,262.29c-.09-1.02-.35-1.76-.78-2.23-.43-.47-1.04-.7-1.85-.7s-1.4.26-1.85.78c-.46.52-.7,1.24-.74,2.15h5.22Z"/>
    <path class="cls-1" d="M177.24,268.02v-6.13c0-.64-.06-1.13-.19-1.48-.12-.35-.32-.6-.6-.76s-.68-.23-1.21-.23c-.77,0-1.38.27-1.83.8-.45.53-.67,1.27-.67,2.21v5.6h-1.61v-7.6c0-1.13-.02-1.81-.05-2.06h1.52s.01.11.02.24c0,.13.01.28.02.45,0,.17.02.49.03.96h.03c.37-.67.8-1.14,1.28-1.42.49-.28,1.09-.42,1.81-.42,1.06,0,1.84.26,2.33.79.49.53.74,1.4.74,2.61v6.44h-1.62Z"/>
    <path class="cls-1" d="M183.74,268.2c-.97,0-1.7-.26-2.19-.77s-.73-1.22-.73-2.11c0-1,.33-1.77.99-2.3s1.72-.82,3.18-.86l2.17-.04v-.53c0-.79-.17-1.35-.5-1.69-.33-.34-.86-.51-1.57-.51s-1.24.12-1.57.37c-.33.24-.52.63-.59,1.17l-1.68-.15c.27-1.74,1.57-2.61,3.88-2.61,1.21,0,2.13.28,2.74.84s.92,1.36.92,2.42v4.16c0,.48.06.83.19,1.08.12.24.36.36.71.36.15,0,.33-.02.53-.06v1c-.41.1-.82.14-1.24.14-.6,0-1.03-.16-1.3-.47-.27-.31-.42-.8-.46-1.47h-.05c-.41.74-.89,1.26-1.43,1.57-.54.31-1.21.46-1.99.46ZM184.11,266.99c.59,0,1.11-.13,1.57-.4s.82-.64,1.09-1.1c.26-.47.4-.95.4-1.44v-.79l-1.76.04c-.76.01-1.33.09-1.72.23-.39.14-.69.36-.9.66-.21.3-.31.69-.31,1.17,0,.52.14.93.42,1.21s.69.43,1.21.43Z"/>
    <path class="cls-1" d="M197.55,266.47c-.3.62-.69,1.06-1.18,1.33-.49.27-1.1.4-1.83.4-1.22,0-2.12-.41-2.69-1.23s-.86-2.07-.86-3.73c0-3.37,1.19-5.06,3.56-5.06.73,0,1.34.13,1.83.4.49.27.88.69,1.18,1.28h.02l-.02-1.08v-4.01h1.61v11.26c0,1.01.02,1.67.05,1.99h-1.54c-.02-.1-.04-.32-.06-.66-.02-.35-.03-.64-.03-.89h-.04ZM192.67,263.18c0,1.35.18,2.32.54,2.9.36.58.94.88,1.74.88.91,0,1.57-.32,1.98-.95.41-.63.62-1.61.62-2.94s-.21-2.22-.62-2.81c-.41-.6-1.07-.89-1.97-.89-.81,0-1.4.3-1.76.9s-.54,1.57-.54,2.92Z"/>
    <path class="cls-1" d="M209.8,263.18c0,1.69-.37,2.95-1.12,3.78-.74.83-1.83,1.24-3.24,1.24s-2.48-.43-3.2-1.29c-.72-.86-1.08-2.1-1.08-3.73,0-3.33,1.44-5,4.33-5,1.48,0,2.56.41,3.26,1.22.7.81,1.04,2.07,1.04,3.78ZM208.11,263.18c0-1.33-.2-2.3-.59-2.91-.4-.6-1.06-.91-2-.91s-1.62.31-2.04.92-.63,1.58-.63,2.89.21,2.23.62,2.87c.41.64,1.06.96,1.95.96.96,0,1.65-.31,2.07-.93.41-.62.62-1.59.62-2.9Z"/>
    <path class="cls-1" d="M211.83,268.02v-7.41c0-.68-.02-1.43-.05-2.25h1.52c.05,1.1.07,1.75.07,1.97h.04c.26-.83.55-1.39.88-1.7s.8-.46,1.41-.46c.21,0,.43.03.65.09v1.47c-.21-.06-.5-.09-.86-.09-.67,0-1.18.29-1.53.86-.35.58-.53,1.4-.53,2.47v5.04h-1.61Z"/>
    <path class="cls-1" d="M217.88,256.3v-1.54h1.61v1.54h-1.61ZM217.88,268.02v-9.67h1.61v9.67h-1.61Z"/>
    <path class="cls-1" d="M224.42,268.2c-.97,0-1.7-.26-2.19-.77s-.73-1.22-.73-2.11c0-1,.33-1.77.99-2.3s1.72-.82,3.18-.86l2.17-.04v-.53c0-.79-.17-1.35-.5-1.69-.33-.34-.86-.51-1.57-.51s-1.24.12-1.57.37c-.33.24-.52.63-.59,1.17l-1.68-.15c.27-1.74,1.57-2.61,3.88-2.61,1.21,0,2.13.28,2.74.84s.92,1.36.92,2.42v4.16c0,.48.06.83.19,1.08.12.24.36.36.71.36.15,0,.33-.02.53-.06v1c-.41.1-.82.14-1.24.14-.6,0-1.03-.16-1.3-.47-.27-.31-.42-.8-.46-1.47h-.05c-.41.74-.89,1.26-1.43,1.57-.54.31-1.21.46-1.99.46ZM224.79,266.99c.59,0,1.11-.13,1.57-.4s.82-.64,1.09-1.1c.26-.47.4-.95.4-1.44v-.79l-1.76.04c-.76.01-1.33.09-1.72.23-.39.14-.69.36-.9.66-.21.3-.31.69-.31,1.17,0,.52.14.93.42,1.21s.69.43,1.21.43Z"/>
    <path class="cls-1" d="M131.96,288.42c-.3.62-.69,1.06-1.18,1.33-.49.27-1.1.4-1.83.4-1.22,0-2.12-.41-2.69-1.23-.57-.82-.86-2.07-.86-3.73,0-3.37,1.19-5.06,3.56-5.06.73,0,1.34.13,1.83.4.49.27.88.69,1.18,1.28h.02l-.02-1.08v-4.01h1.61v11.26c0,1.01.02,1.67.05,1.99h-1.54c-.02-.09-.04-.32-.06-.66-.02-.34-.03-.64-.03-.89h-.04ZM127.08,285.13c0,1.35.18,2.32.54,2.9.36.58.94.88,1.74.88.91,0,1.57-.32,1.98-.95.41-.63.62-1.61.62-2.94s-.21-2.22-.62-2.81c-.41-.6-1.07-.89-1.97-.89-.81,0-1.4.3-1.76.9-.36.6-.54,1.57-.54,2.92Z"/>
    <path class="cls-1" d="M137.26,285.48c0,1.11.23,1.96.69,2.56s1.13.9,2.01.9c.7,0,1.26-.14,1.67-.42.42-.28.7-.63.85-1.06l1.41.4c-.58,1.52-1.89,2.29-3.94,2.29-1.43,0-2.52-.43-3.26-1.28-.75-.85-1.12-2.12-1.12-3.8s.37-2.82,1.12-3.67c.75-.85,1.81-1.28,3.2-1.28,2.84,0,4.26,1.71,4.26,5.14v.21h-6.9ZM142.5,284.25c-.09-1.02-.35-1.76-.78-2.23-.43-.47-1.04-.7-1.85-.7s-1.4.26-1.85.78c-.46.52-.7,1.24-.74,2.15h5.22Z"/>
    <path class="cls-1" d="M161.42,286.5c0,1.16-.45,2.06-1.36,2.7-.91.64-2.19.96-3.84.96-3.07,0-4.84-1.07-5.33-3.2l1.65-.33c.19.76.6,1.31,1.21,1.67.62.35,1.46.53,2.53.53s1.95-.19,2.55-.57c.6-.38.9-.93.9-1.67,0-.41-.09-.74-.28-1s-.45-.47-.79-.63c-.34-.17-.74-.31-1.21-.42-.47-.11-.99-.24-1.56-.37-.99-.22-1.75-.44-2.26-.66-.52-.22-.92-.47-1.22-.74-.3-.27-.53-.59-.68-.95-.16-.36-.24-.78-.24-1.25,0-1.08.41-1.91,1.24-2.49.82-.58,2.01-.88,3.54-.88,1.43,0,2.52.22,3.28.66.76.44,1.29,1.18,1.59,2.24l-1.68.29c-.19-.67-.54-1.15-1.05-1.45s-1.24-.45-2.15-.45c-1.01,0-1.77.17-2.3.5-.53.33-.79.83-.79,1.49,0,.39.1.71.31.96.21.25.5.47.89.64s1.16.39,2.31.65c.39.09.77.18,1.16.27.38.09.75.2,1.1.33.35.13.68.28.99.45s.57.38.8.63c.23.25.4.54.53.88s.19.74.19,1.2Z"/>
    <path class="cls-1" d="M163.48,278.25v-1.54h1.61v1.54h-1.61ZM163.48,289.97v-9.67h1.61v9.67h-1.61Z"/>
    <path class="cls-1" d="M171.27,289.9c-.53.14-1.07.21-1.63.21-1.29,0-1.93-.73-1.93-2.19v-6.45h-1.12v-1.17h1.18l.47-2.16h1.07v2.16h1.79v1.17h-1.79v6.1c0,.46.08.79.23.98s.42.28.79.28c.21,0,.52-.04.93-.12v1.19Z"/>
    <path class="cls-1" d="M173.87,285.48c0,1.11.23,1.96.69,2.56s1.13.9,2.01.9c.7,0,1.26-.14,1.67-.42.42-.28.7-.63.85-1.06l1.41.4c-.58,1.52-1.89,2.29-3.94,2.29-1.43,0-2.52-.43-3.26-1.28-.75-.85-1.12-2.12-1.12-3.8s.37-2.82,1.12-3.67c.75-.85,1.81-1.28,3.2-1.28,2.84,0,4.26,1.71,4.26,5.14v.21h-6.9ZM179.1,284.25c-.09-1.02-.35-1.76-.78-2.23-.43-.47-1.04-.7-1.85-.7s-1.4.26-1.85.78c-.46.52-.7,1.24-.74,2.15h5.22Z"/>
    <path class="cls-1" d="M188.44,289.97v-6.13c0-.94-.13-1.58-.38-1.94-.26-.36-.72-.54-1.38-.54s-1.23.26-1.63.79c-.4.52-.6,1.26-.6,2.22v5.6h-1.6v-7.6c0-1.12-.02-1.81-.05-2.06h1.52s.01.11.02.24c0,.13.01.28.02.45,0,.17.02.49.03.96h.03c.35-.69.74-1.16,1.19-1.43.45-.27.99-.4,1.63-.4.73,0,1.31.15,1.74.44s.72.76.89,1.39h.03c.33-.65.74-1.12,1.21-1.4.47-.29,1.05-.43,1.72-.43.98,0,1.69.27,2.13.8.44.53.67,1.4.67,2.61v6.44h-1.59v-6.13c0-.94-.13-1.58-.38-1.94-.26-.36-.72-.54-1.38-.54-.7,0-1.25.26-1.64.78s-.58,1.26-.58,2.22v5.6h-1.59Z"/>
    <path class="cls-1" d="M200.52,290.15c-.97,0-1.7-.26-2.19-.77-.49-.51-.73-1.21-.73-2.11,0-1,.33-1.77.99-2.3.66-.54,1.72-.82,3.18-.86l2.17-.04v-.53c0-.79-.17-1.35-.5-1.69-.33-.34-.86-.51-1.57-.51s-1.24.12-1.57.37c-.33.24-.52.63-.59,1.17l-1.68-.15c.27-1.74,1.57-2.61,3.88-2.61,1.21,0,2.13.28,2.74.84s.92,1.36.92,2.42v4.16c0,.48.06.83.19,1.08.12.24.36.36.71.36.15,0,.33-.02.53-.06v1c-.41.1-.82.14-1.24.14-.6,0-1.03-.16-1.3-.47s-.42-.8-.46-1.47h-.05c-.41.74-.89,1.26-1.43,1.57-.54.31-1.21.46-1.99.46ZM200.88,288.95c.59,0,1.11-.13,1.57-.4.46-.27.82-.63,1.09-1.1.26-.47.4-.95.4-1.44v-.79l-1.76.04c-.76.01-1.33.09-1.72.23-.39.14-.69.36-.9.66s-.31.69-.31,1.17c0,.52.14.93.42,1.21s.69.43,1.21.43Z"/>
    <path class="cls-1" d="M215.48,287.3c0,.91-.34,1.61-1.03,2.11s-1.65.74-2.89.74-2.13-.2-2.78-.59c-.65-.4-1.08-1.01-1.27-1.85l1.42-.28c.14.52.42.9.85,1.14.43.24,1.02.36,1.79.36.82,0,1.41-.12,1.79-.38.38-.25.57-.63.57-1.13,0-.38-.13-.69-.39-.93s-.68-.43-1.27-.59l-1.15-.3c-.92-.24-1.58-.47-1.97-.7-.39-.23-.7-.51-.92-.83-.22-.33-.33-.73-.33-1.21,0-.88.31-1.55.94-2.01.63-.46,1.54-.69,2.75-.69,1.07,0,1.91.19,2.54.56.63.38,1.03.98,1.19,1.8l-1.45.18c-.09-.43-.33-.76-.72-.99-.39-.23-.91-.34-1.57-.34-.73,0-1.26.11-1.61.33-.35.22-.52.55-.52,1,0,.27.07.5.21.68s.35.33.63.46.87.3,1.77.52c.85.21,1.47.41,1.84.59s.67.38.89.6c.22.22.39.47.5.76s.18.62.18.99Z"/>
  </g>
  <rect class="cls-2" x="343.88" y="239.9" width="199" height="63"/>
  <g>
    <path class="cls-1" d="M374.68,253.99c-1.39,0-2.48.45-3.25,1.34-.77.9-1.16,2.12-1.16,3.69s.4,2.78,1.21,3.72c.81.94,1.9,1.41,3.27,1.41,1.76,0,3.09-.87,3.98-2.62l1.39.7c-.52,1.08-1.25,1.91-2.18,2.47s-2.03.85-3.27.85-2.37-.26-3.29-.79c-.93-.53-1.63-1.28-2.12-2.26-.49-.98-.73-2.14-.73-3.48,0-2.01.54-3.58,1.63-4.72,1.08-1.14,2.58-1.71,4.5-1.71,1.34,0,2.46.26,3.36.79.9.52,1.56,1.3,1.98,2.33l-1.62.54c-.29-.73-.76-1.29-1.41-1.68s-1.41-.58-2.3-.58Z"/>
    <path class="cls-1" d="M390.23,260.53c0,1.69-.37,2.95-1.12,3.78-.74.83-1.83,1.24-3.24,1.24s-2.48-.43-3.2-1.29c-.72-.86-1.08-2.1-1.08-3.73,0-3.33,1.44-5,4.33-5,1.48,0,2.56.41,3.26,1.22.7.81,1.04,2.07,1.04,3.78ZM388.54,260.53c0-1.33-.2-2.3-.59-2.91-.4-.6-1.06-.91-2-.91s-1.62.31-2.04.92-.63,1.58-.63,2.89.21,2.23.62,2.87c.41.64,1.06.96,1.95.96.96,0,1.65-.31,2.07-.93.41-.62.62-1.59.62-2.9Z"/>
    <path class="cls-1" d="M400.4,260.53c0,1.69-.37,2.95-1.12,3.78-.74.83-1.83,1.24-3.24,1.24s-2.48-.43-3.2-1.29c-.72-.86-1.08-2.1-1.08-3.73,0-3.33,1.44-5,4.33-5,1.48,0,2.56.41,3.26,1.22.7.81,1.04,2.07,1.04,3.78ZM398.71,260.53c0-1.33-.2-2.3-.59-2.91-.4-.6-1.06-.91-2-.91s-1.62.31-2.04.92-.63,1.58-.63,2.89.21,2.23.62,2.87c.41.64,1.06.96,1.95.96.96,0,1.65-.31,2.07-.93.41-.62.62-1.59.62-2.9Z"/>
    <path class="cls-1" d="M402.44,265.37v-7.41c0-.68-.02-1.43-.05-2.25h1.52c.05,1.1.07,1.75.07,1.97h.04c.26-.83.55-1.39.88-1.7s.8-.46,1.41-.46c.21,0,.43.03.65.09v1.47c-.21-.06-.5-.09-.86-.09-.67,0-1.18.29-1.53.86-.35.58-.53,1.4-.53,2.47v5.04h-1.61Z"/>
    <path class="cls-1" d="M414.59,263.82c-.3.62-.69,1.06-1.18,1.33-.49.27-1.1.4-1.83.4-1.22,0-2.12-.41-2.69-1.23s-.86-2.07-.86-3.73c0-3.37,1.19-5.06,3.56-5.06.73,0,1.34.13,1.83.4.49.27.88.69,1.18,1.28h.02l-.02-1.08v-4.01h1.61v11.26c0,1.01.02,1.67.05,1.99h-1.54c-.02-.1-.04-.32-.06-.66-.02-.35-.03-.64-.03-.89h-.04ZM409.72,260.53c0,1.35.18,2.32.54,2.9.36.58.94.88,1.74.88.91,0,1.57-.32,1.98-.95.41-.63.62-1.61.62-2.94s-.21-2.22-.62-2.81c-.41-.6-1.07-.89-1.97-.89-.81,0-1.4.3-1.76.9s-.54,1.57-.54,2.92Z"/>
    <path class="cls-1" d="M419.9,260.88c0,1.11.23,1.96.69,2.56.46.6,1.13.9,2.01.9.7,0,1.26-.14,1.67-.42.42-.28.7-.63.85-1.06l1.41.4c-.58,1.52-1.89,2.29-3.94,2.29-1.43,0-2.52-.43-3.26-1.28-.75-.85-1.12-2.12-1.12-3.8s.37-2.82,1.12-3.67c.75-.85,1.81-1.28,3.2-1.28,2.84,0,4.26,1.71,4.26,5.14v.21h-6.9ZM425.14,259.65c-.09-1.02-.35-1.76-.78-2.23-.43-.47-1.04-.7-1.85-.7s-1.4.26-1.85.78c-.46.52-.7,1.24-.74,2.15h5.22Z"/>
    <path class="cls-1" d="M434.98,265.37v-6.13c0-.64-.06-1.13-.19-1.48-.12-.35-.32-.6-.6-.76s-.68-.23-1.21-.23c-.77,0-1.38.27-1.83.8-.45.53-.67,1.27-.67,2.21v5.6h-1.61v-7.6c0-1.13-.02-1.81-.05-2.06h1.52s.01.11.02.24c0,.13.01.28.02.45,0,.17.02.49.03.96h.03c.37-.67.8-1.14,1.28-1.42.49-.28,1.09-.42,1.81-.42,1.06,0,1.84.26,2.33.79.49.53.74,1.4.74,2.61v6.44h-1.62Z"/>
    <path class="cls-1" d="M441.48,265.55c-.97,0-1.7-.26-2.19-.77s-.73-1.22-.73-2.11c0-1,.33-1.77.99-2.3s1.72-.82,3.18-.86l2.17-.04v-.53c0-.79-.17-1.35-.5-1.69-.33-.34-.86-.51-1.57-.51s-1.24.12-1.57.37c-.33.24-.52.63-.59,1.17l-1.68-.15c.27-1.74,1.57-2.61,3.88-2.61,1.21,0,2.13.28,2.74.84s.92,1.36.92,2.42v4.16c0,.48.06.83.19,1.08.12.24.36.36.71.36.15,0,.33-.02.53-.06v1c-.41.1-.82.14-1.24.14-.6,0-1.03-.16-1.3-.47-.27-.31-.42-.8-.46-1.47h-.05c-.41.74-.89,1.26-1.43,1.57-.54.31-1.21.46-1.99.46ZM441.85,264.35c.59,0,1.11-.13,1.57-.4s.82-.64,1.09-1.1c.26-.47.4-.95.4-1.44v-.79l-1.76.04c-.76.01-1.33.09-1.72.23-.39.14-.69.36-.9.66-.21.3-.31.69-.31,1.17,0,.52.14.93.42,1.21s.69.43,1.21.43Z"/>
    <path class="cls-1" d="M455.29,263.82c-.3.62-.69,1.06-1.18,1.33-.49.27-1.1.4-1.83.4-1.22,0-2.12-.41-2.69-1.23s-.86-2.07-.86-3.73c0-3.37,1.19-5.06,3.56-5.06.73,0,1.34.13,1.83.4.49.27.88.69,1.18,1.28h.02l-.02-1.08v-4.01h1.61v11.26c0,1.01.02,1.67.05,1.99h-1.54c-.02-.1-.04-.32-.06-.66-.02-.35-.03-.64-.03-.89h-.04ZM450.42,260.53c0,1.35.18,2.32.54,2.9.36.58.94.88,1.74.88.91,0,1.57-.32,1.98-.95.41-.63.62-1.61.62-2.94s-.21-2.22-.62-2.81c-.41-.6-1.07-.89-1.97-.89-.81,0-1.4.3-1.76.9s-.54,1.57-.54,2.92Z"/>
    <path class="cls-1" d="M467.54,260.53c0,1.69-.37,2.95-1.12,3.78-.74.83-1.83,1.24-3.24,1.24s-2.48-.43-3.2-1.29c-.72-.86-1.08-2.1-1.08-3.73,0-3.33,1.44-5,4.33-5,1.48,0,2.56.41,3.26,1.22.7.81,1.04,2.07,1.04,3.78ZM465.85,260.53c0-1.33-.2-2.3-.59-2.91-.4-.6-1.06-.91-2-.91s-1.62.31-2.04.92-.63,1.58-.63,2.89.21,2.23.62,2.87c.41.64,1.06.96,1.95.96.96,0,1.65-.31,2.07-.93.41-.62.62-1.59.62-2.9Z"/>
    <path class="cls-1" d="M469.58,265.37v-7.41c0-.68-.02-1.43-.05-2.25h1.52c.05,1.1.07,1.75.07,1.97h.04c.26-.83.55-1.39.88-1.7s.8-.46,1.41-.46c.21,0,.43.03.65.09v1.47c-.21-.06-.5-.09-.86-.09-.67,0-1.18.29-1.53.86-.35.58-.53,1.4-.53,2.47v5.04h-1.61Z"/>
    <path class="cls-1" d="M475.62,253.65v-1.54h1.61v1.54h-1.61ZM475.62,265.37v-9.67h1.61v9.67h-1.61Z"/>
    <path class="cls-1" d="M482.16,265.55c-.97,0-1.7-.26-2.19-.77s-.73-1.22-.73-2.11c0-1,.33-1.77.99-2.3s1.72-.82,3.18-.86l2.17-.04v-.53c0-.79-.17-1.35-.5-1.69-.33-.34-.86-.51-1.57-.51s-1.24.12-1.57.37c-.33.24-.52.63-.59,1.17l-1.68-.15c.27-1.74,1.57-2.61,3.88-2.61,1.21,0,2.13.28,2.74.84s.92,1.36.92,2.42v4.16c0,.48.06.83.19,1.08.12.24.36.36.71.36.15,0,.33-.02.53-.06v1c-.41.1-.82.14-1.24.14-.6,0-1.03-.16-1.3-.47-.27-.31-.42-.8-.46-1.47h-.05c-.41.74-.89,1.26-1.43,1.57-.54.31-1.21.46-1.99.46ZM482.53,264.35c.59,0,1.11-.13,1.57-.4s.82-.64,1.09-1.1c.26-.47.4-.95.4-1.44v-.79l-1.76.04c-.76.01-1.33.09-1.72.23-.39.14-.69.36-.9.66-.21.3-.31.69-.31,1.17,0,.52.14.93.42,1.21s.69.43,1.21.43Z"/>
    <path class="cls-1" d="M501.06,263.82c-.3.62-.69,1.06-1.18,1.33-.49.27-1.1.4-1.83.4-1.22,0-2.12-.41-2.69-1.23s-.86-2.07-.86-3.73c0-3.37,1.19-5.06,3.56-5.06.73,0,1.34.13,1.83.4.49.27.88.69,1.18,1.28h.02l-.02-1.08v-4.01h1.61v11.26c0,1.01.02,1.67.05,1.99h-1.54c-.02-.1-.04-.32-.06-.66-.02-.35-.03-.64-.03-.89h-.04ZM496.18,260.53c0,1.35.18,2.32.54,2.9.36.58.94.88,1.74.88.91,0,1.57-.32,1.98-.95.41-.63.62-1.61.62-2.94s-.21-2.22-.62-2.81c-.41-.6-1.07-.89-1.97-.89-.81,0-1.4.3-1.76.9s-.54,1.57-.54,2.92Z"/>
    <path class="cls-1" d="M506.36,260.88c0,1.11.23,1.96.69,2.56.46.6,1.13.9,2.01.9.7,0,1.26-.14,1.67-.42.42-.28.7-.63.85-1.06l1.41.4c-.58,1.52-1.89,2.29-3.94,2.29-1.43,0-2.52-.43-3.26-1.28-.75-.85-1.12-2.12-1.12-3.8s.37-2.82,1.12-3.67c.75-.85,1.81-1.28,3.2-1.28,2.84,0,4.26,1.71,4.26,5.14v.21h-6.9ZM511.6,259.65c-.09-1.02-.35-1.76-.78-2.23-.43-.47-1.04-.7-1.85-.7s-1.4.26-1.85.78c-.46.52-.7,1.24-.74,2.15h5.22Z"/>
    <path class="cls-1" d="M362.77,287.33l-3.27-5.23h-3.92v5.23h-1.71v-12.59h5.92c1.42,0,2.51.32,3.28.95.77.63,1.16,1.52,1.16,2.65,0,.94-.27,1.72-.82,2.36s-1.3,1.04-2.26,1.21l3.57,5.42h-1.97ZM362.52,278.36c0-.73-.25-1.29-.75-1.67s-1.21-.58-2.15-.58h-4.05v4.65h4.12c.9,0,1.59-.21,2.09-.63.49-.42.74-1.01.74-1.76Z"/>
    <path class="cls-1" d="M368.05,282.83c0,1.11.23,1.96.69,2.56s1.13.9,2.01.9c.7,0,1.26-.14,1.67-.42.42-.28.7-.63.85-1.06l1.41.4c-.58,1.52-1.89,2.29-3.94,2.29-1.43,0-2.52-.43-3.26-1.28-.75-.85-1.12-2.12-1.12-3.8s.37-2.82,1.12-3.67c.75-.85,1.81-1.28,3.2-1.28,2.84,0,4.26,1.71,4.26,5.14v.21h-6.9ZM373.28,281.6c-.09-1.02-.35-1.76-.78-2.23-.43-.47-1.04-.7-1.85-.7s-1.4.26-1.85.78c-.46.52-.7,1.24-.74,2.15h5.22Z"/>
    <path class="cls-1" d="M383.09,285.77c-.3.62-.69,1.06-1.18,1.33-.49.27-1.1.4-1.83.4-1.22,0-2.12-.41-2.69-1.23-.57-.82-.86-2.07-.86-3.73,0-3.37,1.19-5.06,3.56-5.06.73,0,1.34.13,1.83.4.49.27.88.69,1.18,1.28h.02l-.02-1.08v-4.01h1.61v11.26c0,1.01.02,1.67.05,1.99h-1.54c-.02-.09-.04-.32-.06-.66-.02-.34-.03-.64-.03-.89h-.04ZM378.21,282.49c0,1.35.18,2.32.54,2.9.36.58.94.88,1.74.88.91,0,1.57-.32,1.98-.95.41-.63.62-1.61.62-2.94s-.21-2.22-.62-2.81c-.41-.6-1.07-.89-1.97-.89-.81,0-1.4.3-1.76.9-.36.6-.54,1.57-.54,2.92Z"/>
    <path class="cls-1" d="M388.39,282.83c0,1.11.23,1.96.69,2.56s1.13.9,2.01.9c.7,0,1.26-.14,1.67-.42.42-.28.7-.63.85-1.06l1.41.4c-.58,1.52-1.89,2.29-3.94,2.29-1.43,0-2.52-.43-3.26-1.28-.75-.85-1.12-2.12-1.12-3.8s.37-2.82,1.12-3.67c.75-.85,1.81-1.28,3.2-1.28,2.84,0,4.26,1.71,4.26,5.14v.21h-6.9ZM393.63,281.6c-.09-1.02-.35-1.76-.78-2.23-.43-.47-1.04-.7-1.85-.7s-1.4.26-1.85.78c-.46.52-.7,1.24-.74,2.15h5.22Z"/>
    <path class="cls-1" d="M404.59,284.66c0,.91-.34,1.61-1.03,2.11s-1.65.74-2.89.74-2.13-.2-2.78-.59c-.65-.4-1.08-1.01-1.27-1.85l1.42-.28c.14.52.42.9.85,1.14.43.24,1.02.36,1.79.36.82,0,1.41-.12,1.79-.38.38-.25.57-.63.57-1.13,0-.38-.13-.69-.39-.93s-.68-.43-1.27-.59l-1.15-.3c-.92-.24-1.58-.47-1.97-.7-.39-.23-.7-.51-.92-.83-.22-.33-.33-.73-.33-1.21,0-.88.31-1.55.94-2.01.63-.46,1.54-.69,2.75-.69,1.07,0,1.91.19,2.54.56.63.38,1.03.98,1.19,1.8l-1.45.18c-.09-.43-.33-.76-.72-.99-.39-.23-.91-.34-1.57-.34-.73,0-1.26.11-1.61.33-.35.22-.52.55-.52,1,0,.27.07.5.21.68s.35.33.63.46.87.3,1.77.52c.85.21,1.47.41,1.84.59s.67.38.89.6c.22.22.39.47.5.76s.18.62.18.99Z"/>
    <path class="cls-1" d="M412.8,282.83c0,1.11.23,1.96.69,2.56s1.13.9,2.01.9c.7,0,1.26-.14,1.67-.42.42-.28.7-.63.85-1.06l1.41.4c-.58,1.52-1.89,2.29-3.94,2.29-1.43,0-2.52-.43-3.26-1.28-.75-.85-1.12-2.12-1.12-3.8s.37-2.82,1.12-3.67c.75-.85,1.81-1.28,3.2-1.28,2.84,0,4.26,1.71,4.26,5.14v.21h-6.9ZM418.03,281.6c-.09-1.02-.35-1.76-.78-2.23-.43-.47-1.04-.7-1.85-.7s-1.4.26-1.85.78c-.46.52-.7,1.24-.74,2.15h5.22Z"/>
    <path class="cls-1" d="M427.28,287.33v-12.59h1.71v12.59h-1.71Z"/>
    <path class="cls-1" d="M438.04,287.33v-6.13c0-.64-.06-1.13-.19-1.48s-.32-.6-.6-.76-.68-.23-1.21-.23c-.77,0-1.38.27-1.83.8-.45.53-.67,1.27-.67,2.21v5.6h-1.61v-7.6c0-1.12-.02-1.81-.05-2.06h1.52s.01.11.02.24c0,.13.01.28.02.45,0,.17.02.49.03.96h.03c.37-.67.8-1.14,1.28-1.42.49-.28,1.09-.42,1.81-.42,1.06,0,1.84.26,2.33.79.49.53.74,1.4.74,2.61v6.44h-1.62Z"/>
    <path class="cls-1" d="M444.07,278.83v8.5h-1.61v-8.5h-1.36v-1.17h1.36v-1.09c0-.88.19-1.52.58-1.9.39-.39.98-.58,1.78-.58.45,0,.82.04,1.13.11v1.22c-.27-.05-.51-.07-.71-.07-.41,0-.71.1-.89.31-.18.21-.28.59-.28,1.13v.87h1.88v1.17h-1.88Z"/>
    <path class="cls-1" d="M447.2,287.33v-7.41c0-.68-.02-1.43-.05-2.25h1.52c.05,1.1.07,1.75.07,1.97h.04c.26-.83.55-1.39.88-1.7s.8-.46,1.41-.46c.21,0,.43.03.65.09v1.47c-.21-.06-.5-.09-.86-.09-.67,0-1.18.29-1.53.86-.35.58-.53,1.4-.53,2.47v5.04h-1.61Z"/>
    <path class="cls-1" d="M455.72,287.51c-.97,0-1.7-.26-2.19-.77-.49-.51-.73-1.21-.73-2.11,0-1,.33-1.77.99-2.3.66-.54,1.72-.82,3.18-.86l2.17-.04v-.53c0-.79-.17-1.35-.5-1.69-.33-.34-.86-.51-1.57-.51s-1.24.12-1.57.37c-.33.24-.52.63-.59,1.17l-1.68-.15c.27-1.74,1.57-2.61,3.88-2.61,1.21,0,2.13.28,2.74.84s.92,1.36.92,2.42v4.16c0,.48.06.83.19,1.08.12.24.36.36.71.36.15,0,.33-.02.53-.06v1c-.41.1-.82.14-1.24.14-.6,0-1.03-.16-1.3-.47s-.42-.8-.46-1.47h-.05c-.41.74-.89,1.26-1.43,1.57-.54.31-1.21.46-1.99.46ZM456.09,286.3c.59,0,1.11-.13,1.57-.4.46-.27.82-.63,1.09-1.1.26-.47.4-.95.4-1.44v-.79l-1.76.04c-.76.01-1.33.09-1.72.23-.39.14-.69.36-.9.66s-.31.69-.31,1.17c0,.52.14.93.42,1.21s.69.43,1.21.43Z"/>
    <path class="cls-1" d="M464.66,282.83c0,1.11.23,1.96.69,2.56s1.13.9,2.01.9c.7,0,1.26-.14,1.67-.42.42-.28.7-.63.85-1.06l1.41.4c-.58,1.52-1.89,2.29-3.94,2.29-1.43,0-2.52-.43-3.26-1.28-.75-.85-1.12-2.12-1.12-3.8s.37-2.82,1.12-3.67c.75-.85,1.81-1.28,3.2-1.28,2.84,0,4.26,1.71,4.26,5.14v.21h-6.9ZM469.9,281.6c-.09-1.02-.35-1.76-.78-2.23-.43-.47-1.04-.7-1.85-.7s-1.4.26-1.85.78c-.46.52-.7,1.24-.74,2.15h5.22Z"/>
    <path class="cls-1" d="M480.86,284.66c0,.91-.34,1.61-1.03,2.11s-1.65.74-2.89.74-2.13-.2-2.78-.59c-.65-.4-1.08-1.01-1.27-1.85l1.42-.28c.14.52.42.9.85,1.14.43.24,1.02.36,1.79.36.82,0,1.41-.12,1.79-.38.38-.25.57-.63.57-1.13,0-.38-.13-.69-.39-.93s-.68-.43-1.27-.59l-1.15-.3c-.92-.24-1.58-.47-1.97-.7-.39-.23-.7-.51-.92-.83-.22-.33-.33-.73-.33-1.21,0-.88.31-1.55.94-2.01.63-.46,1.54-.69,2.75-.69,1.07,0,1.91.19,2.54.56.63.38,1.03.98,1.19,1.8l-1.45.18c-.09-.43-.33-.76-.72-.99-.39-.23-.91-.34-1.57-.34-.73,0-1.26.11-1.61.33-.35.22-.52.55-.52,1,0,.27.07.5.21.68s.35.33.63.46.87.3,1.77.52c.85.21,1.47.41,1.84.59s.67.38.89.6c.22.22.39.47.5.76s.18.62.18.99Z"/>
    <path class="cls-1" d="M486.47,287.26c-.53.14-1.07.21-1.63.21-1.29,0-1.93-.73-1.93-2.19v-6.45h-1.12v-1.17h1.18l.47-2.16h1.07v2.16h1.79v1.17h-1.79v6.1c0,.46.08.79.23.98s.42.28.79.28c.21,0,.52-.04.93-.12v1.19Z"/>
    <path class="cls-1" d="M487.87,287.33v-7.41c0-.68-.02-1.43-.05-2.25h1.52c.05,1.1.07,1.75.07,1.97h.04c.26-.83.55-1.39.88-1.7s.8-.46,1.41-.46c.21,0,.43.03.65.09v1.47c-.21-.06-.5-.09-.86-.09-.67,0-1.18.29-1.53.86-.35.58-.53,1.4-.53,2.47v5.04h-1.61Z"/>
    <path class="cls-1" d="M495.5,277.66v6.13c0,.64.06,1.13.19,1.48s.32.6.6.76c.27.15.68.23,1.21.23.77,0,1.38-.26,1.83-.79.45-.53.67-1.26.67-2.21v-5.6h1.61v7.6c0,1.13.02,1.81.05,2.06h-1.52s-.01-.11-.02-.24c0-.13-.01-.28-.02-.45s-.02-.49-.03-.96h-.03c-.37.67-.8,1.14-1.28,1.42-.49.28-1.09.42-1.81.42-1.06,0-1.84-.26-2.33-.79-.49-.53-.74-1.4-.74-2.61v-6.44h1.62Z"/>
    <path class="cls-1" d="M507.82,287.26c-.53.14-1.07.21-1.63.21-1.29,0-1.93-.73-1.93-2.19v-6.45h-1.12v-1.17h1.18l.47-2.16h1.07v2.16h1.79v1.17h-1.79v6.1c0,.46.08.79.23.98s.42.28.79.28c.21,0,.52-.04.93-.12v1.19Z"/>
    <path class="cls-1" d="M510.76,277.66v6.13c0,.64.06,1.13.19,1.48s.32.6.6.76c.27.15.68.23,1.21.23.77,0,1.38-.26,1.83-.79.45-.53.67-1.26.67-2.21v-5.6h1.61v7.6c0,1.13.02,1.81.05,2.06h-1.52s-.01-.11-.02-.24c0-.13-.01-.28-.02-.45s-.02-.49-.03-.96h-.03c-.37.67-.8,1.14-1.28,1.42-.49.28-1.09.42-1.81.42-1.06,0-1.84-.26-2.33-.79-.49-.53-.74-1.4-.74-2.61v-6.44h1.62Z"/>
    <path class="cls-1" d="M519.4,287.33v-7.41c0-.68-.02-1.43-.05-2.25h1.52c.05,1.1.07,1.75.07,1.97h.04c.26-.83.55-1.39.88-1.7.33-.3.8-.46,1.41-.46.21,0,.43.03.65.09v1.47c-.21-.06-.5-.09-.86-.09-.67,0-1.18.29-1.53.86-.35.58-.53,1.4-.53,2.47v5.04h-1.61Z"/>
    <path class="cls-1" d="M527.92,287.51c-.97,0-1.7-.26-2.19-.77-.49-.51-.73-1.21-.73-2.11,0-1,.33-1.77.99-2.3.66-.54,1.72-.82,3.18-.86l2.17-.04v-.53c0-.79-.17-1.35-.5-1.69-.33-.34-.86-.51-1.57-.51s-1.25.12-1.57.37-.52.63-.59,1.17l-1.68-.15c.27-1.74,1.57-2.61,3.88-2.61,1.21,0,2.13.28,2.74.84s.92,1.36.92,2.42v4.16c0,.48.06.83.19,1.08s.36.36.71.36c.15,0,.33-.02.53-.06v1c-.41.1-.82.14-1.24.14-.6,0-1.03-.16-1.3-.47-.27-.31-.42-.8-.46-1.47h-.05c-.41.74-.89,1.26-1.43,1.57s-1.21.46-1.99.46ZM528.28,286.3c.59,0,1.11-.13,1.57-.4.46-.27.82-.63,1.08-1.1s.4-.95.4-1.44v-.79l-1.76.04c-.76.01-1.33.09-1.72.23-.39.14-.69.36-.9.66-.21.3-.31.69-.31,1.17,0,.52.14.93.42,1.21.28.29.69.43,1.21.43Z"/>
  </g>
  <polygon class="cls-3" points="171.38 239.24 169.38 239.24 169.38 212.71 353.63 212.71 353.63 214.71 171.38 214.71 171.38 239.24"/>
  <g>
    <path class="cls-1" d="M435.17,149.23c0,1.16-.45,2.06-1.36,2.7-.91.64-2.19.96-3.84.96-3.07,0-4.84-1.07-5.33-3.2l1.65-.33c.19.76.6,1.31,1.21,1.67.62.35,1.46.53,2.53.53s1.95-.19,2.55-.57c.6-.38.9-.93.9-1.67,0-.41-.09-.74-.28-1-.19-.26-.45-.47-.79-.63-.34-.17-.74-.31-1.21-.42-.47-.11-.99-.24-1.56-.37-.99-.22-1.75-.44-2.26-.66s-.92-.47-1.22-.74c-.3-.27-.53-.59-.68-.95-.16-.36-.24-.78-.24-1.25,0-1.08.41-1.91,1.24-2.49.82-.58,2.01-.88,3.54-.88,1.43,0,2.52.22,3.28.66.76.44,1.29,1.18,1.59,2.24l-1.68.29c-.19-.67-.54-1.15-1.05-1.45s-1.24-.45-2.15-.45c-1.01,0-1.77.17-2.3.5-.53.33-.79.83-.79,1.49,0,.39.1.71.31.96.21.25.5.47.89.64s1.16.39,2.31.65c.39.09.77.18,1.16.27.38.09.75.2,1.1.33.35.13.68.28.99.45s.57.38.8.63c.23.25.4.54.53.88s.19.74.19,1.2Z"/>
    <path class="cls-1" d="M438.47,148.21c0,1.11.23,1.96.69,2.56.46.6,1.13.9,2.01.9.7,0,1.26-.14,1.67-.42.42-.28.7-.63.85-1.06l1.41.4c-.58,1.52-1.89,2.29-3.94,2.29-1.43,0-2.52-.43-3.26-1.28-.75-.85-1.12-2.12-1.12-3.8s.37-2.82,1.12-3.67c.75-.85,1.81-1.28,3.2-1.28,2.84,0,4.26,1.71,4.26,5.14v.21h-6.9ZM443.71,146.98c-.09-1.02-.35-1.76-.78-2.23-.43-.47-1.04-.7-1.85-.7s-1.4.26-1.85.78c-.46.52-.7,1.24-.74,2.15h5.22Z"/>
    <path class="cls-1" d="M448.64,147.82c0,1.29.2,2.24.61,2.86.4.62,1.02.93,1.83.93.57,0,1.05-.15,1.43-.46.38-.31.62-.79.71-1.43l1.63.11c-.12.93-.52,1.67-1.19,2.22-.67.55-1.51.83-2.54.83-1.35,0-2.38-.43-3.1-1.28-.71-.85-1.07-2.1-1.07-3.74s.36-2.87,1.07-3.72,1.74-1.28,3.07-1.28c.99,0,1.81.26,2.46.77.65.51,1.06,1.22,1.23,2.12l-1.65.12c-.08-.54-.29-.96-.63-1.28-.34-.32-.82-.47-1.45-.47-.85,0-1.47.28-1.85.85-.38.57-.57,1.52-.57,2.86Z"/>
    <path class="cls-1" d="M456.6,152.7v-7.41c0-.68-.02-1.43-.05-2.25h1.52c.05,1.1.07,1.75.07,1.97h.04c.26-.83.55-1.39.88-1.7s.8-.46,1.41-.46c.21,0,.43.03.65.09v1.47c-.21-.06-.5-.09-.86-.09-.67,0-1.18.29-1.53.86-.35.58-.53,1.4-.53,2.47v5.04h-1.61Z"/>
    <path class="cls-1" d="M463.89,148.21c0,1.11.23,1.96.69,2.56.46.6,1.13.9,2.01.9.7,0,1.26-.14,1.67-.42.42-.28.7-.63.85-1.06l1.41.4c-.58,1.52-1.89,2.29-3.94,2.29-1.43,0-2.52-.43-3.26-1.28-.75-.85-1.12-2.12-1.12-3.8s.37-2.82,1.12-3.67c.75-.85,1.81-1.28,3.2-1.28,2.84,0,4.26,1.71,4.26,5.14v.21h-6.9ZM469.12,146.98c-.09-1.02-.35-1.76-.78-2.23-.43-.47-1.04-.7-1.85-.7s-1.4.26-1.85.78c-.46.52-.7,1.24-.74,2.15h5.22Z"/>
    <path class="cls-1" d="M476.54,152.63c-.53.14-1.07.21-1.63.21-1.29,0-1.93-.73-1.93-2.19v-6.45h-1.12v-1.17h1.18l.47-2.16h1.07v2.16h1.79v1.17h-1.79v6.1c0,.46.08.79.23.98s.42.28.79.28c.21,0,.52-.04.93-.13v1.19Z"/>
    <path class="cls-1" d="M480.38,152.88c-.97,0-1.7-.26-2.19-.77s-.73-1.22-.73-2.11c0-1,.33-1.77.99-2.3s1.72-.82,3.18-.86l2.17-.04v-.53c0-.79-.17-1.35-.5-1.69-.33-.34-.86-.51-1.57-.51s-1.24.12-1.57.37c-.33.24-.52.63-.59,1.17l-1.68-.15c.27-1.74,1.57-2.61,3.88-2.61,1.21,0,2.13.28,2.74.84s.92,1.36.92,2.42v4.16c0,.48.06.83.19,1.08.12.24.36.36.71.36.15,0,.33-.02.53-.06v1c-.41.1-.82.14-1.24.14-.6,0-1.03-.16-1.3-.47-.27-.31-.42-.8-.46-1.47h-.05c-.41.74-.89,1.26-1.43,1.57-.54.31-1.21.46-1.99.46ZM480.74,151.67c.59,0,1.11-.13,1.57-.4s.82-.64,1.09-1.1c.26-.47.4-.95.4-1.44v-.79l-1.76.04c-.76.01-1.33.09-1.72.23-.39.14-.69.36-.9.66-.21.3-.31.69-.31,1.17,0,.52.14.93.42,1.21s.69.43,1.21.43Z"/>
    <path class="cls-1" d="M488.12,152.7v-7.41c0-.68-.02-1.43-.05-2.25h1.52c.05,1.1.07,1.75.07,1.97h.04c.26-.83.55-1.39.88-1.7s.8-.46,1.41-.46c.21,0,.43.03.65.09v1.47c-.21-.06-.5-.09-.86-.09-.67,0-1.18.29-1.53.86-.35.58-.53,1.4-.53,2.47v5.04h-1.61Z"/>
    <path class="cls-1" d="M494.17,140.98v-1.54h1.61v1.54h-1.61ZM494.17,152.7v-9.67h1.61v9.67h-1.61Z"/>
    <path class="cls-1" d="M500.71,152.88c-.97,0-1.7-.26-2.19-.77s-.73-1.22-.73-2.11c0-1,.33-1.77.99-2.3s1.72-.82,3.18-.86l2.17-.04v-.53c0-.79-.17-1.35-.5-1.69-.33-.34-.86-.51-1.57-.51s-1.24.12-1.57.37c-.33.24-.52.63-.59,1.17l-1.68-.15c.27-1.74,1.57-2.61,3.88-2.61,1.21,0,2.13.28,2.74.84s.92,1.36.92,2.42v4.16c0,.48.06.83.19,1.08.12.24.36.36.71.36.15,0,.33-.02.53-.06v1c-.41.1-.82.14-1.24.14-.6,0-1.03-.16-1.3-.47-.27-.31-.42-.8-.46-1.47h-.05c-.41.74-.89,1.26-1.43,1.57-.54.31-1.21.46-1.99.46ZM501.07,151.67c.59,0,1.11-.13,1.57-.4s.82-.64,1.09-1.1c.26-.47.4-.95.4-1.44v-.79l-1.76.04c-.76.01-1.33.09-1.72.23-.39.14-.69.36-.9.66-.21.3-.31.69-.31,1.17,0,.52.14.93.42,1.21s.69.43,1.21.43Z"/>
    <path class="cls-1" d="M421.02,174.65l-1.44-3.68h-5.73l-1.45,3.68h-1.77l5.14-12.59h1.94l5.06,12.59h-1.74ZM416.71,163.35l-.08.25c-.15.49-.37,1.13-.66,1.9l-1.61,4.14h4.71l-1.62-4.15c-.17-.41-.33-.88-.5-1.39l-.24-.74Z"/>
    <path class="cls-1" d="M430.13,173.1c-.3.62-.69,1.06-1.18,1.33-.49.27-1.1.4-1.83.4-1.22,0-2.12-.41-2.69-1.23-.57-.82-.86-2.07-.86-3.73,0-3.37,1.19-5.06,3.56-5.06.73,0,1.34.13,1.83.4.49.27.88.69,1.18,1.28h.02l-.02-1.08v-4.01h1.61v11.26c0,1.01.02,1.67.05,1.99h-1.54c-.02-.09-.04-.32-.06-.66-.02-.34-.03-.64-.03-.89h-.04ZM425.25,169.81c0,1.35.18,2.32.54,2.9.36.58.94.88,1.74.88.91,0,1.57-.32,1.98-.95.41-.63.62-1.61.62-2.94s-.21-2.22-.62-2.81c-.41-.6-1.07-.89-1.97-.89-.81,0-1.4.3-1.76.9-.36.6-.54,1.57-.54,2.92Z"/>
    <path class="cls-1" d="M439.83,174.65v-6.13c0-.94-.13-1.58-.38-1.94-.26-.36-.72-.54-1.38-.54s-1.23.26-1.63.79c-.4.52-.6,1.26-.6,2.22v5.6h-1.6v-7.6c0-1.12-.02-1.81-.05-2.06h1.52s.01.11.02.24c0,.13.01.28.02.45,0,.17.02.49.03.96h.03c.35-.69.74-1.16,1.19-1.43.45-.27.99-.4,1.63-.4.73,0,1.31.15,1.74.44s.72.76.89,1.39h.03c.33-.65.74-1.12,1.21-1.4.47-.29,1.05-.43,1.72-.43.98,0,1.69.27,2.13.8.44.53.67,1.4.67,2.61v6.44h-1.59v-6.13c0-.94-.13-1.58-.38-1.94-.26-.36-.72-.54-1.38-.54-.7,0-1.25.26-1.64.78s-.58,1.26-.58,2.22v5.6h-1.59Z"/>
    <path class="cls-1" d="M449.43,162.93v-1.54h1.61v1.54h-1.61ZM449.43,174.65v-9.67h1.61v9.67h-1.61Z"/>
    <path class="cls-1" d="M459.64,174.65v-6.13c0-.64-.06-1.13-.19-1.48s-.32-.6-.6-.76-.68-.23-1.21-.23c-.77,0-1.38.27-1.83.8-.45.53-.67,1.27-.67,2.21v5.6h-1.61v-7.6c0-1.12-.02-1.81-.05-2.06h1.52s.01.11.02.24c0,.13.01.28.02.45,0,.17.02.49.03.96h.03c.37-.67.8-1.14,1.28-1.42.49-.28,1.09-.42,1.81-.42,1.06,0,1.84.26,2.33.79.49.53.74,1.4.74,2.61v6.44h-1.62Z"/>
    <path class="cls-1" d="M463.67,162.93v-1.54h1.61v1.54h-1.61ZM463.67,174.65v-9.67h1.61v9.67h-1.61Z"/>
    <path class="cls-1" d="M475,171.98c0,.91-.34,1.61-1.03,2.11s-1.65.74-2.89.74-2.13-.2-2.78-.59c-.65-.4-1.08-1.01-1.27-1.85l1.42-.28c.14.52.42.9.85,1.14.43.24,1.02.36,1.79.36.82,0,1.41-.12,1.79-.38.38-.25.57-.63.57-1.13,0-.38-.13-.69-.39-.93s-.68-.43-1.27-.59l-1.15-.3c-.92-.24-1.58-.47-1.97-.7-.39-.23-.7-.51-.92-.83-.22-.33-.33-.73-.33-1.21,0-.88.31-1.55.94-2.01.63-.46,1.54-.69,2.75-.69,1.07,0,1.91.19,2.54.56.63.38,1.03.98,1.19,1.8l-1.45.18c-.09-.43-.33-.76-.72-.99-.39-.23-.91-.34-1.57-.34-.73,0-1.26.11-1.61.33-.35.22-.52.55-.52,1,0,.27.07.5.21.68s.35.33.63.46.87.3,1.77.52c.85.21,1.47.41,1.84.59s.67.38.89.6c.22.22.39.47.5.76s.18.62.18.99Z"/>
    <path class="cls-1" d="M480.61,174.58c-.53.14-1.07.21-1.63.21-1.29,0-1.93-.73-1.93-2.19v-6.45h-1.12v-1.17h1.18l.47-2.16h1.07v2.16h1.79v1.17h-1.79v6.1c0,.46.08.79.23.98s.42.28.79.28c.21,0,.52-.04.93-.12v1.19Z"/>
    <path class="cls-1" d="M482.01,174.65v-7.41c0-.68-.02-1.43-.05-2.25h1.52c.05,1.1.07,1.75.07,1.97h.04c.26-.83.55-1.39.88-1.7s.8-.46,1.41-.46c.21,0,.43.03.65.09v1.47c-.21-.06-.5-.09-.86-.09-.67,0-1.18.29-1.53.86-.35.58-.53,1.4-.53,2.47v5.04h-1.61Z"/>
    <path class="cls-1" d="M490.53,174.83c-.97,0-1.7-.26-2.19-.77-.49-.51-.73-1.21-.73-2.11,0-1,.33-1.77.99-2.3.66-.54,1.72-.82,3.18-.86l2.17-.04v-.53c0-.79-.17-1.35-.5-1.69-.33-.34-.86-.51-1.57-.51s-1.24.12-1.57.37c-.33.24-.52.63-.59,1.17l-1.68-.15c.27-1.74,1.57-2.61,3.88-2.61,1.21,0,2.13.28,2.74.84s.92,1.36.92,2.42v4.16c0,.48.06.83.19,1.08.12.24.36.36.71.36.15,0,.33-.02.53-.06v1c-.41.1-.82.14-1.24.14-.6,0-1.03-.16-1.3-.47s-.42-.8-.46-1.47h-.05c-.41.74-.89,1.26-1.43,1.57-.54.31-1.21.46-1.99.46ZM490.9,173.63c.59,0,1.11-.13,1.57-.4.46-.27.82-.63,1.09-1.1.26-.47.4-.95.4-1.44v-.79l-1.76.04c-.76.01-1.33.09-1.72.23-.39.14-.69.36-.9.66s-.31.69-.31,1.17c0,.52.14.93.42,1.21s.69.43,1.21.43Z"/>
    <path class="cls-1" d="M501.96,174.58c-.53.14-1.07.21-1.63.21-1.29,0-1.93-.73-1.93-2.19v-6.45h-1.12v-1.17h1.18l.47-2.16h1.07v2.16h1.79v1.17h-1.79v6.1c0,.46.08.79.23.98s.42.28.79.28c.21,0,.52-.04.93-.12v1.19Z"/>
    <path class="cls-1" d="M503.32,162.93v-1.54h1.61v1.54h-1.61ZM503.32,174.65v-9.67h1.61v9.67h-1.61Z"/>
    <path class="cls-1" d="M511.63,174.65h-1.9l-3.51-9.67h1.72l2.13,6.29c.08.24.28.94.62,2.12l.31-1.04.35-1.05,2.2-6.31h1.71l-3.61,9.67Z"/>
    <path class="cls-1" d="M519,174.83c-.97,0-1.7-.26-2.19-.77-.49-.51-.73-1.21-.73-2.11,0-1,.33-1.77.99-2.3.66-.54,1.72-.82,3.18-.86l2.17-.04v-.53c0-.79-.17-1.35-.5-1.69-.33-.34-.86-.51-1.57-.51s-1.24.12-1.57.37c-.33.24-.52.63-.59,1.17l-1.68-.15c.27-1.74,1.57-2.61,3.88-2.61,1.21,0,2.13.28,2.74.84s.92,1.36.92,2.42v4.16c0,.48.06.83.19,1.08.12.24.36.36.71.36.16,0,.33-.02.53-.06v1c-.41.1-.82.14-1.24.14-.6,0-1.03-.16-1.3-.47-.27-.31-.42-.8-.46-1.47h-.05c-.41.74-.89,1.26-1.43,1.57-.54.31-1.21.46-1.99.46ZM519.37,173.63c.59,0,1.11-.13,1.57-.4.46-.27.82-.63,1.09-1.1.26-.47.4-.95.4-1.44v-.79l-1.76.04c-.76.01-1.33.09-1.72.23-.39.14-.69.36-.9.66-.21.3-.31.69-.31,1.17,0,.52.14.93.42,1.21.28.29.69.43,1.21.43Z"/>
  </g>
  <rect class="cls-3" x="244.51" y="158.45" width="124.03" height="2"/>
</svg>